<svg width="160" height="39" viewBox="0 0 160 39" fill="none" xmlns="http://www.w3.org/2000/svg">
<path fill-rule="evenodd" clip-rule="evenodd" d="M18.553 2.01967C9.28587 2.43567 1.73992 9.76565 1.2451 18.8386C0.84172 26.2845 5.10682 32.7982 11.4372 35.826C13.7984 36.9529 16.6059 35.5365 17.0577 33.0036C17.3643 31.2975 16.4768 29.6072 14.8902 28.8488C11.292 27.1217 8.8771 23.3883 9.16217 19.1388C9.49563 14.1679 13.6047 10.129 18.682 9.78671C24.6844 9.38125 29.6863 14.031 29.6863 19.818C29.6863 23.7937 27.3305 27.227 23.9099 28.8595C22.3501 29.6072 21.495 31.2869 21.7961 32.9615L21.8123 33.0457C22.2587 35.5365 25.0178 36.9529 27.3359 35.8524C33.4135 32.972 37.6088 26.8742 37.6088 19.818C37.6088 9.6972 28.9925 1.54575 18.553 2.01967Z" fill="#00AA13"/>
<path fill-rule="evenodd" clip-rule="evenodd" d="M19.4297 26.0846C15.896 26.0846 13.0239 23.2727 13.0239 19.8131C13.0239 16.3534 15.896 13.5415 19.4297 13.5415C22.9633 13.5415 25.8354 16.3534 25.8354 19.8131C25.8354 23.2727 22.9633 26.0846 19.4297 26.0846Z" fill="#00AA13"/>
<mask id="mask0_2307_1565" style="mask-type:luminance" maskUnits="userSpaceOnUse" x="47" y="2" width="111" height="35">
<path d="M157.218 2H47.5308V36.125H157.218V2Z" fill="white"/>
</mask>
<g mask="url(#mask0_2307_1565)">
<path fill-rule="evenodd" clip-rule="evenodd" d="M80.5066 7.69287C74.9697 7.69287 70.4819 12.1475 70.4819 17.6434C70.4819 23.1393 74.9697 27.594 80.5066 27.594C86.0434 27.594 90.5313 23.1393 90.5313 17.6434C90.5313 12.1475 86.0434 7.69287 80.5066 7.69287ZM80.5066 23.1237C77.459 23.1237 74.9855 20.6684 74.9855 17.6434C74.9855 14.6184 77.459 12.1631 80.5066 12.1631C83.5542 12.1631 86.0278 14.6184 86.0278 17.6434C86.0278 20.6684 83.5542 23.1237 80.5066 23.1237Z" fill="#454545"/>
<path fill-rule="evenodd" clip-rule="evenodd" d="M67.4446 7.96237H63.4316C63.228 7.96237 63.0662 8.12294 63.0662 8.32496V8.80669V9.58884C62.3513 8.76525 61.2189 8.30943 60.7701 8.15402C59.7578 7.81733 58.6775 7.63604 57.5555 7.64122C52.097 7.65676 47.609 12.0648 47.5308 17.483C47.4525 23.0617 51.9821 27.6096 57.5868 27.6096C58.7036 27.6096 59.7839 27.4283 60.7858 27.0916C61.245 26.9311 62.3618 26.4753 63.0714 25.662V26.439V26.6254C63.0714 28.3141 62.4818 29.6919 61.3598 30.6139C60.3892 31.4168 59.0271 31.8572 57.5242 31.8572C55.3428 31.8572 53.2503 30.9714 52.0239 29.5573C51.8882 29.4019 51.6482 29.3915 51.4968 29.5365L48.8355 32.1109C48.6893 32.2508 48.6893 32.4787 48.8302 32.6238C51.095 34.9237 54.0383 36.0994 57.5868 36.1201H58.7193C63.7289 36.1201 67.789 32.0902 67.789 27.1176V25.3616C67.789 25.3616 67.789 25.3356 67.789 25.3202L67.8098 8.32496C67.8098 8.12294 67.6481 7.96237 67.4446 7.96237ZM63.0662 17.6798C63.0349 20.6582 60.5926 23.0669 57.5868 23.0669C54.581 23.0669 52.1022 20.6324 52.1022 17.6228C52.1022 14.6133 54.5549 12.1787 57.5868 12.1787C60.6188 12.1787 63.0349 14.5822 63.0662 17.5659V17.6798Z" fill="#454545"/>
<path fill-rule="evenodd" clip-rule="evenodd" d="M126.21 7.61523C120.668 7.61523 116.175 12.0752 116.175 17.5761C116.175 23.0772 120.668 27.5371 126.21 27.5371C131.752 27.5371 136.245 23.0772 136.245 17.5761C136.245 12.0752 131.752 7.61523 126.21 7.61523ZM126.21 23.0616C123.157 23.0616 120.684 20.6064 120.684 17.5761C120.684 14.5459 123.157 12.0906 126.21 12.0906C129.263 12.0906 131.736 14.5459 131.736 17.5761C131.736 20.6064 129.263 23.0616 126.21 23.0616Z" fill="#454545"/>
<path d="M143.52 17.5186L136.521 8.54186C136.339 8.30359 136.506 7.95654 136.808 7.95654H142.038C142.157 7.95654 142.267 8.01352 142.335 8.11193L146.666 14.1982H146.733L151.128 8.10675C151.195 8.01352 151.305 7.95654 151.426 7.95654H156.659C156.962 7.95654 157.134 8.30359 156.946 8.54186L149.948 17.5186L157.144 26.718C157.333 26.9564 157.16 27.3033 156.858 27.3033H151.629C151.513 27.3033 151.399 27.2464 151.332 27.1532L146.733 20.8078H146.666L142.136 27.1532C142.068 27.2464 141.958 27.3033 141.839 27.3033H136.609C136.307 27.3033 136.135 26.9564 136.323 26.718L143.52 17.5186Z" fill="#454545"/>
<path fill-rule="evenodd" clip-rule="evenodd" d="M113.461 17.7469C113.539 12.1629 109.005 7.6098 103.395 7.6098C101.386 7.6098 99.5122 8.19512 97.9362 9.2052V3.62648V2.36259C97.9362 2.16057 97.7745 2 97.5709 2H93.5996C93.3961 2 93.2344 2.16057 93.2344 2.36259V26.8634C93.2344 27.0654 93.3961 27.2259 93.5996 27.2259H97.5657C97.7692 27.2259 97.9309 27.0654 97.9309 26.8634V25.9984C99.5174 27.0136 101.406 27.6041 103.437 27.5937C108.895 27.5679 113.378 23.1598 113.451 17.7469H113.461ZM108.885 17.6018C108.885 20.6113 106.427 23.051 103.395 23.051C100.561 23.051 98.2337 20.9221 97.9362 18.1923V17.0165C98.2337 14.2867 100.561 12.1577 103.395 12.1577C106.427 12.1577 108.885 14.5975 108.885 17.6069V17.6018Z" fill="#454545"/>
</g>
</svg>
