<svg width="148" height="36" viewBox="0 0 148 36" fill="none" xmlns="http://www.w3.org/2000/svg">
<mask id="mask0_2301_1538" style="mask-type:luminance" maskUnits="userSpaceOnUse" x="0" y="0" width="147" height="36">
<path d="M146.483 0H0V35.4H146.483V0Z" fill="white"/>
</mask>
<g mask="url(#mask0_2301_1538)">
<path fill-rule="evenodd" clip-rule="evenodd" d="M17.3347 0.0216231C8.06761 0.43762 0.521659 7.76761 0.0268429 16.8406C-0.37654 24.2865 3.88857 30.8002 10.219 33.828C12.5801 34.9549 15.3877 33.5385 15.8394 31.0056C16.146 29.2995 15.2586 27.6091 13.6719 26.8508C10.0738 25.1237 7.65884 21.3902 7.9439 17.1408C8.27737 12.1698 12.3865 8.13094 17.4637 7.78866C23.4661 7.3832 28.4681 12.0329 28.4681 17.82C28.4681 21.7957 26.1122 25.229 22.6916 26.8614C21.1318 27.6091 20.2766 29.2888 20.5778 30.9635L20.594 31.0477C21.0403 33.5385 23.7995 34.9549 26.1177 33.8544C32.1952 30.974 36.3905 24.8762 36.3905 17.82C36.3905 7.69915 27.7741 -0.452298 17.3347 0.0216231Z" fill="#00AA13"/>
<path fill-rule="evenodd" clip-rule="evenodd" d="M18.405 23.54C14.8717 23.54 12 20.7288 12 17.2701C12 13.8112 14.8717 11 18.405 11C21.9383 11 24.81 13.8112 24.81 17.2701C24.81 20.7288 21.9383 23.54 18.405 23.54Z" fill="#00AA13"/>
<path fill-rule="evenodd" clip-rule="evenodd" d="M77.9439 4.07666C72.4126 4.07666 67.9292 8.46657 67.9292 13.8824C67.9292 19.2984 72.4126 23.6884 77.9439 23.6884C83.4752 23.6884 87.9586 19.2984 87.9586 13.8824C87.9586 8.46657 83.4752 4.07666 77.9439 4.07666ZM77.9439 19.283C74.8994 19.283 72.4284 16.8636 72.4284 13.8824C72.4284 10.9014 74.8994 8.48188 77.9439 8.48188C80.9886 8.48188 83.4596 10.9014 83.4596 13.8824C83.4596 16.8636 80.9886 19.283 77.9439 19.283Z" fill="#454545"/>
<path fill-rule="evenodd" clip-rule="evenodd" d="M64.895 4.34246H60.8859C60.6826 4.34246 60.521 4.50071 60.521 4.69979V5.17451V5.94529C59.8067 5.13367 58.6755 4.68447 58.2272 4.53133C57.2158 4.19954 56.1366 4.02089 55.0157 4.02599C49.5574 4.0413 45.074 8.38016 45.001 13.7246C44.9229 19.2222 49.448 23.704 55.047 23.704C56.1627 23.704 57.2418 23.5254 58.2428 23.1936C58.7015 23.0353 59.8172 22.5861 60.5262 21.7846V22.5504V22.7342C60.5262 24.3982 59.937 25.756 58.8162 26.6647C57.8465 27.4558 56.4858 27.8898 54.9845 27.8898C52.8053 27.8898 50.7148 27.0169 49.4897 25.6233C49.3541 25.4702 49.1144 25.46 48.9632 25.6029L46.3043 28.1398C46.1584 28.2777 46.1584 28.5022 46.2992 28.6452C48.5618 30.9116 51.502 32.0703 55.047 32.0907H56.1783C61.183 32.0907 65.239 28.1194 65.239 23.2191V21.4886C65.239 21.4886 65.239 21.4632 65.239 21.4478L65.2599 4.69979C65.2599 4.50071 65.0982 4.34246 64.895 4.34246ZM60.521 13.9186C60.4896 16.8537 58.0499 19.2273 55.047 19.2273C52.0442 19.2273 49.5678 16.8282 49.5678 13.8625C49.5678 10.8967 52.0181 8.49756 55.047 8.49756C58.076 8.49756 60.4896 10.8661 60.521 13.8063V13.9186Z" fill="#454545"/>
<path d="M111.366 18.109C111.366 14.6736 113.66 12.8462 119.713 12.0396C123.257 11.5496 124.227 11.0596 124.227 10.1459C124.227 8.92078 122.903 8.18062 120.86 8.18062C118.545 8.18062 116.783 9.34956 116.215 11.2076C116.162 11.376 115.985 11.4782 115.808 11.4424L111.465 10.5593C111.267 10.5185 111.147 10.3296 111.194 10.1356C112.112 6.4706 115.923 4 120.713 4C126.266 4 129.706 6.77177 129.706 11.2944V23.0042C129.706 23.193 129.55 23.3462 129.357 23.3462H125.296C125.103 23.3462 124.947 23.193 124.947 23.0042V21.0798H124.874C123.727 22.6571 121.292 23.6423 118.462 23.6423C114.233 23.6423 111.371 21.3963 111.371 18.0988L111.366 18.109ZM124.822 16.1948V13.8977H124.749C124.264 14.5919 123.221 14.9901 120.536 15.4648C117.294 16.0467 116.136 16.6695 116.136 17.8026C116.136 18.9359 117.106 19.482 119.191 19.482C122.397 19.482 124.816 18.0579 124.816 16.1998L124.822 16.1948Z" fill="#454545"/>
<path d="M137.078 23.3314H133.013C132.809 23.3314 132.648 23.1733 132.648 22.9742V4.73049C132.648 4.53141 132.809 4.37317 133.013 4.37317H136.745C136.949 4.37317 137.11 4.53141 137.11 4.73049V6.89992L137.725 6.17507L137.772 6.12403C139.169 4.72538 141.03 4.01074 143.303 4.01074C144.148 4.01074 144.982 4.12305 145.926 4.36807C146.035 4.39359 146.098 4.50079 146.077 4.60287L145.175 8.40065C145.154 8.48743 145.07 8.55379 144.977 8.55379C144.961 8.55379 144.946 8.55379 144.93 8.54869C144.09 8.34961 143.438 8.27815 142.532 8.27815C139.253 8.27815 137.443 10.4833 137.443 14.4904V22.9792C137.443 23.1783 137.282 23.3366 137.078 23.3366V23.3314Z" fill="#454545"/>
<path d="M105.064 16.8738C103.995 18.441 102.119 19.4363 100.007 19.2729C97.3954 19.0688 95.2424 17.0372 94.9556 14.4849C94.5855 11.2129 97.1922 8.44113 100.461 8.44113C102.4 8.44113 104.105 9.42118 105.09 10.8965C105.194 11.0496 105.408 11.0955 105.57 11.0036L108.865 9.14044C109.042 9.03835 109.104 8.81886 108.995 8.64531C107.103 5.68467 103.657 3.78067 99.7779 4.03079C94.6429 4.36259 90.5348 8.54831 90.394 13.5865C90.2376 19.1606 94.8044 23.7241 100.456 23.7241C104.037 23.7241 107.181 21.8916 108.969 19.13C109.078 18.9615 109.016 18.737 108.839 18.6349L105.544 16.7718C105.382 16.6799 105.168 16.7207 105.059 16.8738H105.064Z" fill="#454545"/>
</g>
</svg>
