<svg width="181" height="42" viewBox="0 0 181 42" fill="none" xmlns="http://www.w3.org/2000/svg">
<path fill-rule="evenodd" clip-rule="evenodd" d="M20.6167 1.31002C10.972 1.74301 3.11857 9.37236 2.6036 18.8159C2.18378 26.5659 6.62269 33.3456 13.211 36.4971C15.6684 37.67 18.5904 36.1957 19.0605 33.5594C19.3797 31.7836 18.456 30.0242 16.8047 29.2349C13.0599 27.4373 10.5466 23.5514 10.8433 19.1283C11.1903 13.9544 15.4669 9.75054 20.751 9.39428C26.998 8.97226 32.2038 13.8119 32.2038 19.8353C32.2038 23.9733 29.752 27.5469 26.1919 29.246C24.5686 30.0242 23.6787 31.7726 23.992 33.5156L24.0089 33.6032C24.4735 36.1957 27.345 37.67 29.7576 36.5245C36.0828 33.5265 40.4491 27.1797 40.4491 19.8353C40.4491 9.30111 31.4817 0.816748 20.6167 1.31002Z" fill="#EE2938"/>
<path fill-rule="evenodd" clip-rule="evenodd" d="M21.5286 26.3576C17.8509 26.3576 14.8618 23.4309 14.8618 19.83C14.8618 16.229 17.8509 13.3022 21.5286 13.3022C25.2063 13.3022 28.1954 16.229 28.1954 19.83C28.1954 23.4309 25.2063 26.3576 21.5286 26.3576Z" fill="#EE2938"/>
<mask id="mask0_2316_1647" style="mask-type:luminance" maskUnits="userSpaceOnUse" x="51" y="4" width="127" height="37">
<path d="M177.807 4.50977H51.5376V40.5868H177.807V4.50977Z" fill="white"/>
</mask>
<g mask="url(#mask0_2316_1647)">
<path fill-rule="evenodd" clip-rule="evenodd" d="M85.8879 9.22217C80.1194 9.22217 75.4438 13.9353 75.4438 19.7499C75.4438 25.5645 80.1194 30.2777 85.8879 30.2777C91.6563 30.2777 96.3319 25.5645 96.3319 19.7499C96.3319 13.9353 91.6563 9.22217 85.8879 9.22217ZM85.8879 25.5481C82.7128 25.5481 80.1358 22.9504 80.1358 19.7499C80.1358 16.5493 82.7128 13.9516 85.8879 13.9516C89.0631 13.9516 91.64 16.5493 91.64 19.7499C91.64 22.9504 89.0631 25.5481 85.8879 25.5481Z" fill="#454545"/>
<path fill-rule="evenodd" clip-rule="evenodd" d="M72.2849 9.50689H68.1041C67.892 9.50689 67.7235 9.67678 67.7235 9.89052V10.4002V11.2277C66.9786 10.3563 65.7989 9.87407 65.3313 9.70967C64.2766 9.35344 63.1511 9.16163 61.9822 9.16711C56.2953 9.18355 51.6197 13.8419 51.5382 19.5798C51.4566 25.482 56.1757 30.2938 62.0148 30.2938C63.1783 30.2938 64.3038 30.1019 65.3475 29.7458C65.8261 29.5758 66.9896 29.0936 67.7289 28.2331V29.0553V29.2526C67.7289 31.0392 67.1145 32.4969 65.9456 33.4724C64.9345 34.3218 63.5153 34.7877 61.9496 34.7877C59.677 34.7877 57.4969 33.8506 56.2193 32.3544C56.0778 32.19 55.8277 32.1791 55.6701 32.3325L52.8974 35.0562C52.7451 35.2041 52.7451 35.4453 52.8919 35.5988C55.2515 38.032 58.3178 39.2761 62.0094 39.298H63.1892C68.4085 39.298 72.6383 35.0343 72.6383 29.7731V27.9153C72.6383 27.9153 72.6383 27.888 72.6383 27.8715L72.6601 9.89052C72.6601 9.67678 72.4916 9.50689 72.2795 9.50689H72.2849ZM67.7235 19.788C67.6909 22.9392 65.1464 25.482 62.0148 25.482C58.8833 25.482 56.3062 22.9064 56.3062 19.7277C56.3062 16.5491 58.8615 13.9733 62.0148 13.9733C65.1682 13.9733 67.6909 16.5162 67.7235 19.6674V19.788Z" fill="#454545"/>
<path fill-rule="evenodd" clip-rule="evenodd" d="M120.58 9.12988C114.811 9.12988 110.136 13.8429 110.136 19.6575C110.136 25.4723 114.811 30.1853 120.58 30.1853C126.348 30.1853 131.024 25.4723 131.024 19.6575C131.024 13.8429 126.348 9.12988 120.58 9.12988ZM120.58 25.4558C117.405 25.4558 114.828 22.8581 114.828 19.6575C114.828 16.4571 117.405 13.8594 120.58 13.8594C123.755 13.8594 126.332 16.4571 126.332 19.6575C126.332 22.8581 123.755 25.4558 120.58 25.4558Z" fill="#454545"/>
<path fill-rule="evenodd" clip-rule="evenodd" d="M143.898 9.12988C138.13 9.12988 133.454 13.8429 133.454 19.6575C133.454 25.4723 138.13 30.1853 143.898 30.1853C149.667 30.1853 154.343 25.4723 154.343 19.6575C154.343 13.8429 149.667 9.12988 143.898 9.12988ZM143.898 25.4558C140.724 25.4558 138.147 22.8581 138.147 19.6575C138.147 16.4571 140.724 13.8594 143.898 13.8594C147.073 13.8594 149.65 16.4571 149.65 19.6575C149.65 22.8581 147.073 25.4558 143.898 25.4558Z" fill="#454545"/>
<path fill-rule="evenodd" clip-rule="evenodd" d="M167.196 30.2666C169.31 30.2775 171.279 29.6583 172.926 28.5841V29.4994C172.926 29.7131 173.094 29.883 173.307 29.883H177.433C177.645 29.883 177.814 29.7131 177.814 29.4994V3.60482C177.814 3.39108 177.645 3.22119 177.433 3.22119H173.302C173.089 3.22119 172.92 3.39108 172.92 3.60482V4.93654V10.8279C171.284 9.76471 169.337 9.14543 167.245 9.14543C161.405 9.14543 156.686 13.9572 156.768 19.8595C156.849 25.5864 161.508 30.2393 167.191 30.2666H167.196ZM167.25 13.9517C170.197 13.9517 172.621 16.1986 172.926 19.0867V20.3309C172.616 23.2189 170.197 25.4659 167.25 25.4659C164.097 25.4659 161.535 22.8901 161.535 19.7061C161.535 16.5274 164.092 13.9517 167.25 13.9517Z" fill="#454545"/>
<path fill-rule="evenodd" clip-rule="evenodd" d="M108.592 10.5544H104.031C104.031 7.97315 105.765 8.02247 108.761 8.02247C108.864 8.02247 108.94 7.91835 108.94 7.81421V3.65465C108.94 3.53956 108.848 3.44092 108.728 3.44092H108.516C103.297 3.44092 99.0615 4.92608 99.0615 10.8832V29.6643C99.0615 29.8725 99.23 30.0479 99.442 30.0479H103.601C103.808 30.0479 103.982 29.8781 103.982 29.6643V14.9113H108.592C108.799 14.9113 108.973 14.7413 108.973 14.5277V10.9325C108.973 10.7243 108.804 10.5489 108.592 10.5489V10.5544Z" fill="#454545"/>
</g>
</svg>
