<svg width="172" height="41" viewBox="0 0 172 41" fill="none" xmlns="http://www.w3.org/2000/svg">
<path fill-rule="evenodd" clip-rule="evenodd" d="M19.2217 1.3021C9.6305 1.73268 1.82064 9.31968 1.30853 18.7108C0.891034 26.4177 5.3053 33.1599 11.8571 36.2938C14.3008 37.4602 17.2066 35.9941 17.6741 33.3724C17.9915 31.6065 17.0729 29.8569 15.4308 29.072C11.7068 27.2843 9.20744 23.42 9.50247 19.0215C9.84759 13.8762 14.1004 9.69576 19.3552 9.34148C25.5675 8.92179 30.7444 13.7345 30.7444 19.7245C30.7444 23.8396 28.3062 27.3933 24.7659 29.083C23.1516 29.8569 22.2666 31.5955 22.5782 33.3289L22.595 33.416C23.057 35.9941 25.9126 37.4602 28.3118 36.3211C34.6019 33.3398 38.9439 27.0282 38.9439 19.7245C38.9439 9.24882 30.0263 0.81156 19.2217 1.3021Z" fill="#00AED6"/>
<path fill-rule="evenodd" clip-rule="evenodd" d="M20.1292 26.2104C16.472 26.2104 13.4995 23.2999 13.4995 19.7191C13.4995 16.138 16.472 13.2275 20.1292 13.2275C23.7864 13.2275 26.7589 16.138 26.7589 19.7191C26.7589 23.2999 23.7864 26.2104 20.1292 26.2104Z" fill="#00AED6"/>
<mask id="mask0_2310_1582" style="mask-type:luminance" maskUnits="userSpaceOnUse" x="49" y="8" width="121" height="31">
<path d="M169.389 8.96875H49.9702V38.8233H169.389V8.96875Z" fill="white"/>
</mask>
<g mask="url(#mask0_2310_1582)">
<path fill-rule="evenodd" clip-rule="evenodd" d="M83.8997 9.02295C78.2019 9.02295 73.5835 13.6549 73.5835 19.3694C73.5835 25.084 78.2019 29.7159 83.8997 29.7159C89.5976 29.7159 94.216 25.084 94.216 19.3694C94.216 13.6549 89.5976 9.02295 83.8997 9.02295ZM83.8997 25.0678C80.7635 25.0678 78.218 22.5149 78.218 19.3694C78.218 16.2241 80.7635 13.6711 83.8997 13.6711C87.036 13.6711 89.5815 16.2241 89.5815 19.3694C89.5815 22.5149 87.036 25.0678 83.8997 25.0678Z" fill="#454545"/>
<path fill-rule="evenodd" clip-rule="evenodd" d="M70.4626 9.30317H66.3329C66.1234 9.30317 65.957 9.47014 65.957 9.68019V10.1811V10.9944C65.2212 10.138 64.0559 9.66403 63.5941 9.50246C62.5577 9.15236 61.446 8.96924 60.286 8.96924C54.6687 8.9854 50.0502 13.5635 49.9698 19.1972C49.8892 24.9979 54.5506 29.7269 60.3182 29.7269C61.4674 29.7269 62.579 29.5384 63.6101 29.1882C64.0828 29.0213 65.232 28.5473 65.9624 27.7018V28.5096V28.7035C65.9624 30.4594 65.3555 31.8921 64.2009 32.8507C63.202 33.6856 61.8004 34.1434 60.2537 34.1434C58.009 34.1434 55.8555 33.2224 54.5935 31.752C54.4539 31.5904 54.2068 31.5797 54.0511 31.7305L51.3123 34.4073C51.1619 34.5527 51.1619 34.7897 51.307 34.9406C53.6377 37.3319 56.6664 38.5545 60.3128 38.576H61.4781C66.6336 38.576 70.8117 34.3857 70.8117 29.2153V27.3894C70.8117 27.3894 70.8117 27.3625 70.8117 27.3462L70.8331 9.67481C70.8331 9.46475 70.6667 9.29778 70.4572 9.29778L70.4626 9.30317ZM65.957 19.4073C65.9247 22.5043 63.4115 25.0033 60.3182 25.0033C57.225 25.0033 54.6794 22.472 54.6794 19.348C54.6794 16.2242 57.2034 13.6928 60.3182 13.6928C63.4329 13.6928 65.9247 16.1919 65.957 19.2888V19.4073Z" fill="#454545"/>
<path fill-rule="evenodd" clip-rule="evenodd" d="M164.319 22.3487C164.147 22.2463 163.927 22.3001 163.819 22.4671C162.799 24.029 161.042 25.0632 159.045 25.0632C156.408 25.0632 154.191 23.2697 153.535 20.8298H168.948C169.137 20.8298 169.297 20.6898 169.318 20.5013C169.362 20.1188 169.383 19.7311 169.383 19.3379C169.383 13.4456 164.485 8.70592 158.557 8.9806C153.261 9.22298 148.96 13.5371 148.712 18.8532C148.439 24.8047 153.17 29.7113 159.04 29.7113C162.74 29.7113 165.978 27.7616 167.809 24.837C167.922 24.6539 167.869 24.4169 167.681 24.3091L164.314 22.3541L164.319 22.3487ZM159.045 13.6126C161.403 13.6126 163.427 15.0452 164.297 17.0919H153.793C154.663 15.0452 156.687 13.6126 159.045 13.6126Z" fill="#454545"/>
<path d="M124.595 9.29346H120.482C120.274 9.29346 120.106 9.46226 120.106 9.67048V29.0009C120.106 29.2091 120.274 29.3778 120.482 29.3778H124.595C124.803 29.3778 124.971 29.2091 124.971 29.0009V9.67048C124.971 9.46226 124.803 9.29346 124.595 9.29346Z" fill="#454545"/>
<path fill-rule="evenodd" clip-rule="evenodd" d="M116.938 9.30327H112.803C112.593 9.30327 112.427 9.47024 112.427 9.6803V10.1812V10.9945C111.691 10.1381 110.52 9.66414 110.058 9.50256C109.017 9.15248 107.905 8.96396 106.745 8.96935C101.117 8.98551 96.4931 13.569 96.4126 19.2135C96.3321 25.0196 100.999 29.7539 106.772 29.7539C107.926 29.7539 109.033 29.5654 110.069 29.2153C110.542 29.0483 111.691 28.5743 112.421 27.7288V28.5367V28.7305C112.421 30.4864 111.815 31.9245 110.66 32.8831C109.661 33.718 108.259 34.1759 106.707 34.1759C104.457 34.1759 102.304 33.2495 101.042 31.7844C100.902 31.6228 100.65 31.6121 100.499 31.7629L97.7552 34.4397C97.6048 34.5851 97.6048 34.8222 97.7498 34.973C100.086 37.3643 103.115 38.5869 106.772 38.6139H107.937C113.098 38.6139 117.281 34.4182 117.281 29.2423V27.411C117.281 27.411 117.281 27.3841 117.281 27.3679L117.303 9.67492C117.303 9.46486 117.136 9.29789 116.927 9.29789L116.938 9.30327ZM112.427 19.4182C112.394 22.5205 109.881 25.025 106.777 25.025C103.673 25.025 101.128 22.4882 101.128 19.3589C101.128 16.2297 103.657 13.6929 106.777 13.6929C109.897 13.6929 112.394 16.1974 112.427 19.2997V19.4182Z" fill="#454545"/>
<path d="M147.177 9.29885H142.687C142.531 9.29885 142.391 9.3958 142.338 9.54121L142.273 9.7782L137.666 22.5377L132.978 9.54121C132.924 9.3958 132.784 9.29885 132.629 9.29885H128.139C127.876 9.29885 127.693 9.56276 127.79 9.81052L135.12 29.1355C135.174 29.2809 135.313 29.3778 135.47 29.3778H139.749C139.986 29.3778 140.2 29.2324 140.286 29.0062L147.526 9.80514C147.617 9.55738 147.44 9.29346 147.177 9.29346V9.29885Z" fill="#454545"/>
</g>
</svg>
