<svg width="162" height="48" viewBox="0 0 162 48" fill="none" xmlns="http://www.w3.org/2000/svg">
<path fill-rule="evenodd" clip-rule="evenodd" d="M23.1369 3.77422C12.3112 4.26041 3.50239 12.8273 2.92434 23.4251C2.45312 32.1273 7.43558 39.7403 14.8308 43.2729C17.589 44.5899 20.8624 42.9344 21.3966 39.9742C21.7547 37.9801 20.7179 36.0046 18.8645 35.1184C14.6611 33.0997 11.84 28.7363 12.173 23.7697C12.5626 17.96 17.3628 13.2396 23.294 12.8396C30.3059 12.3657 36.1491 17.7939 36.1491 24.5636C36.1491 29.2101 33.3972 33.2228 29.4011 35.1307C27.579 36.0046 26.58 37.9678 26.9319 39.9248L26.9507 40.0233C27.4723 42.9344 30.6892 44.5899 33.4034 43.3037C40.5033 39.9373 45.4041 32.8104 45.4041 24.5636C45.3977 12.7411 35.3323 3.22033 23.1369 3.77422Z" fill="white"/>
<path fill-rule="evenodd" clip-rule="evenodd" d="M24.1672 31.8998C20.0392 31.8998 16.6841 28.6134 16.6841 24.57C16.6841 20.5267 20.0392 17.2402 24.1672 17.2402C28.2951 17.2402 31.6503 20.5267 31.6503 24.57C31.6503 28.6134 28.2951 31.8998 24.1672 31.8998Z" fill="white"/>
<path fill-rule="evenodd" clip-rule="evenodd" d="M129.59 26.6273C129.408 26.5222 129.174 26.5748 129.061 26.7558C127.985 28.4433 126.125 29.5644 124.009 29.5644C121.216 29.5644 118.873 27.6199 118.179 24.9806H134.487C134.687 24.9806 134.857 24.8289 134.88 24.6245C134.925 24.21 134.948 23.7895 134.948 23.3632C134.948 16.987 129.766 11.8486 123.492 12.1464C117.888 12.4091 113.338 17.0804 113.082 22.8318C112.792 29.2725 117.797 34.5919 124.009 34.5919C127.923 34.5919 131.353 32.484 133.281 29.3133C133.401 29.1148 133.344 28.8578 133.145 28.7411L129.584 26.6273H129.59ZM124.009 17.1679C126.501 17.1679 128.64 18.7212 129.561 20.9343H118.452C119.373 18.7212 121.512 17.1679 124.004 17.1679H124.009Z" fill="white"/>
<path fill-rule="evenodd" clip-rule="evenodd" d="M91.2665 12.2051C85.2311 12.2051 80.339 17.2267 80.339 23.422C80.339 29.6172 85.2311 34.639 91.2665 34.639C97.302 34.639 102.194 29.6172 102.194 23.422C102.194 17.2267 97.302 12.2051 91.2665 12.2051ZM91.2665 29.5997C87.9445 29.5997 85.2482 26.832 85.2482 23.422C85.2482 20.0119 87.9445 17.2442 91.2665 17.2442C94.5886 17.2442 97.2849 20.0119 97.2849 23.422C97.2849 26.832 94.5886 29.5997 91.2665 29.5997Z" fill="white"/>
<path fill-rule="evenodd" clip-rule="evenodd" d="M109.822 12.5144H105.448C105.243 12.5144 105.078 12.672 105.055 12.8706V33.5468C105.055 35.4503 104.413 37.0036 103.19 38.0429C102.393 38.7203 101.358 39.1698 100.203 39.3509C100.01 39.3801 99.8675 39.5494 99.8675 39.7537V43.8412C99.8675 44.0689 100.044 44.25 100.266 44.25H100.311C105.772 44.25 110.198 39.707 110.198 34.1015L110.22 12.9173C110.22 12.6896 110.044 12.5085 109.822 12.5085V12.5144Z" fill="white"/>
<path fill-rule="evenodd" clip-rule="evenodd" d="M77.0339 12.5084H72.6594C72.4376 12.5084 72.2612 12.6894 72.2612 12.9171V13.4602V14.3419C71.4819 13.4134 70.2475 12.8996 69.7583 12.7244C68.6547 12.3449 67.4772 12.1405 66.2542 12.1464C60.304 12.1639 55.4119 17.1271 55.3266 23.2348C55.2413 29.5236 60.1789 34.6503 66.2883 34.6503C67.5057 34.6503 68.6832 34.4459 69.7754 34.0664C70.2759 33.8853 71.4932 33.3715 72.2669 32.4548V33.3306V33.5408C72.2669 35.4444 71.6241 36.9976 70.4011 38.037C69.3431 38.942 67.8583 39.4383 66.2201 39.4383C63.8423 39.4383 61.5611 38.4398 60.2243 36.8457C60.0765 36.6705 59.8149 36.659 59.6498 36.8224L56.7487 39.7244C56.5895 39.882 56.5895 40.1391 56.7431 40.3025C59.2118 42.8951 62.4202 44.2206 66.2826 44.2439H67.5169C72.9779 44.2439 77.4036 39.7011 77.4036 34.0956V32.116C77.4036 32.116 77.4036 32.0869 77.4036 32.0693L77.4263 12.9113C77.4263 12.6836 77.25 12.5025 77.0281 12.5025L77.0339 12.5084ZM72.2612 23.4625C72.2271 26.8201 69.5648 29.5294 66.2883 29.5294C63.0118 29.5294 60.3155 26.7849 60.3155 23.3982C60.3155 20.0116 62.989 17.2673 66.2883 17.2673C69.5877 17.2673 72.2271 19.9766 72.2612 23.334V23.4625Z" fill="white"/>
<path fill-rule="evenodd" clip-rule="evenodd" d="M153.391 34.2536C153.321 34.2536 153.253 34.2186 153.214 34.1601L146.484 24.8819L142.94 28.4204V33.9909C142.94 34.1135 142.844 34.2186 142.719 34.2186H138.02C137.9 34.2186 137.798 34.1193 137.798 33.9909V6.13251C137.798 6.00988 137.895 5.90479 138.02 5.90479H142.719C142.838 5.90479 142.94 6.00404 142.94 6.13251V21.5536L151.985 12.5847C152.025 12.5438 152.082 12.5205 152.138 12.5205H158.368C158.504 12.5205 158.556 12.6256 158.572 12.6606C158.584 12.6957 158.618 12.8066 158.521 12.9059L150 21.39L159.067 33.8915C159.119 33.9617 159.124 34.0492 159.084 34.1251C159.045 34.201 158.971 34.2478 158.892 34.2478H153.395L153.391 34.2536Z" fill="white"/>
</svg>
