<svg width="186" height="42" viewBox="0 0 186 42" fill="none" xmlns="http://www.w3.org/2000/svg">
<path fill-rule="evenodd" clip-rule="evenodd" d="M20.2525 1.31002C10.6078 1.74301 2.75432 9.37236 2.23934 18.8159C1.81952 26.5659 6.25843 33.3456 12.8468 36.4971C15.3041 37.67 18.2261 36.1957 18.6963 33.5594C19.0154 31.7836 18.0917 30.0242 16.4404 29.2349C12.6957 27.4373 10.1823 23.5514 10.479 19.1283C10.8261 13.9544 15.1026 9.75054 20.3867 9.39428C26.6337 8.97226 31.8395 13.8119 31.8395 19.8353C31.8395 23.9733 29.3877 27.5469 25.8277 29.246C24.2043 30.0242 23.3144 31.7726 23.6278 33.5156L23.6446 33.6032C24.1093 36.1957 26.9807 37.67 29.3934 36.5245C35.7186 33.5265 40.0848 27.1797 40.0848 19.8353C40.0848 9.30111 31.1175 0.816748 20.2525 1.31002Z" fill="#EE2938"/>
<path fill-rule="evenodd" clip-rule="evenodd" d="M21.1648 26.3576C17.4872 26.3576 14.498 23.4309 14.498 19.83C14.498 16.229 17.4872 13.3022 21.1648 13.3022C24.8425 13.3022 27.8316 16.229 27.8316 19.83C27.8316 23.4309 24.8425 26.3576 21.1648 26.3576Z" fill="#EE2938"/>
<mask id="mask0_2316_1660" style="mask-type:luminance" maskUnits="userSpaceOnUse" x="51" y="3" width="132" height="37">
<path d="M182.596 3.34961H51.1729V39.4266H182.596V3.34961Z" fill="white"/>
</mask>
<g mask="url(#mask0_2316_1660)">
<path fill-rule="evenodd" clip-rule="evenodd" d="M85.2909 9.32275C79.5622 9.32275 74.9155 14.0433 74.9155 19.8628C74.9155 25.6824 79.5622 30.403 85.2909 30.403C91.0195 30.403 95.6663 25.6824 95.6663 19.8628C95.6663 14.0433 91.0195 9.32275 85.2909 9.32275ZM85.2909 25.6659C82.1371 25.6659 79.5785 23.0667 79.5785 19.8628C79.5785 16.659 82.1371 14.0598 85.2909 14.0598C88.4447 14.0598 91.0033 16.659 91.0033 19.8628C91.0033 23.0667 88.4447 25.6659 85.2909 25.6659Z" fill="#454545"/>
<path fill-rule="evenodd" clip-rule="evenodd" d="M71.7829 9.60928H67.6285C67.4229 9.60928 67.2499 9.77962 67.2499 9.99395V10.505V11.3293C66.5087 10.4611 65.3349 9.97746 64.8697 9.8126C63.8256 9.45539 62.7058 9.26855 61.5429 9.26855C55.8954 9.28505 51.254 13.9452 51.1729 19.6877C51.0917 25.5952 55.7818 30.4092 61.5808 30.4092C62.7383 30.4092 63.8527 30.2168 64.8913 29.8596C65.362 29.6893 66.525 29.2058 67.2553 28.3484V29.1728V29.3705C67.2553 31.1566 66.644 32.6184 65.4863 33.5965C64.4802 34.4428 63.0737 34.9099 61.5212 34.9099C59.2601 34.9099 57.0962 33.9702 55.8305 32.4755C55.6898 32.3106 55.441 32.2996 55.284 32.4535L52.5307 35.1792C52.3792 35.3275 52.3792 35.5694 52.5253 35.7232C54.8676 38.1576 57.9131 39.3996 61.5862 39.4271H62.7545C67.9369 39.4271 72.14 35.1572 72.14 29.8926V28.0298C72.14 28.0298 72.14 28.0022 72.14 27.9857L72.1616 9.98845C72.1616 9.77962 71.994 9.60377 71.7829 9.60377V9.60928ZM67.2553 19.9021C67.2228 23.0564 64.6965 25.6063 61.5862 25.6063C58.4757 25.6063 55.9116 23.0234 55.9116 19.8416C55.9116 16.6598 58.454 14.077 61.5862 14.077C64.7182 14.077 67.2282 16.6269 67.2553 19.7811V19.9021Z" fill="#454545"/>
<path d="M134.132 24.3588C134.132 20.6659 136.507 18.7041 142.777 17.8358C146.45 17.3083 147.45 16.7807 147.45 15.8025C147.45 14.4836 146.077 13.6924 143.962 13.6924C141.566 13.6924 139.737 14.9508 139.147 16.9456C139.093 17.1269 138.909 17.2368 138.725 17.1984L134.23 16.2532C134.024 16.2093 133.901 16.006 133.948 15.7971C134.895 11.8569 138.85 9.20264 143.81 9.20264C149.561 9.20264 153.119 12.1811 153.119 17.0445V29.6289C153.119 29.8322 152.957 29.9971 152.757 29.9971H148.549C148.348 29.9971 148.186 29.8322 148.186 29.6289V27.5572H148.111C146.926 29.2552 144.4 30.3104 141.468 30.3104C137.092 30.3104 134.122 27.8978 134.122 24.3534L134.132 24.3588ZM148.072 22.3036V19.8306H147.998C147.494 20.5781 146.412 21.0066 143.637 21.5178C140.277 22.1442 139.083 22.8092 139.083 24.0291C139.083 25.2491 140.083 25.8317 142.247 25.8317C145.568 25.8317 148.072 24.3039 148.072 22.3036Z" fill="#454545"/>
<path d="M126.841 30.0075C126.635 30.0075 126.462 29.8371 126.462 29.6227V18.8684C126.532 17.6209 126.121 16.4174 125.305 15.4832C124.482 14.5435 123.352 13.9829 122.124 13.9116C122.032 13.906 121.934 13.9006 121.842 13.9006C119.403 13.9006 117.374 15.8404 117.228 18.3189C117.217 18.5057 117.217 18.6925 117.228 18.8738V29.6227C117.228 29.8316 117.06 30.0075 116.849 30.0075H112.922C112.717 30.0075 112.544 29.8371 112.544 29.6227V18.8684C112.614 17.6154 112.192 16.412 111.37 15.4723C110.542 14.5325 109.406 13.9775 108.167 13.906C108.081 13.906 107.989 13.9006 107.902 13.9006C105.441 13.9006 103.407 15.8569 103.272 18.3517C103.261 18.5222 103.261 18.6979 103.272 18.8738V29.6227C103.272 29.8316 103.104 30.0075 102.893 30.0075H98.7385C98.5329 30.0075 98.3599 29.8371 98.3599 29.6227V9.96037C98.3599 9.75155 98.5275 9.5757 98.7385 9.5757H102.401C102.606 9.5757 102.779 9.74606 102.779 9.96037V12.2629L103.239 11.7903L103.32 11.7134C104.922 10.1143 107.042 9.23499 109.287 9.23499C109.476 9.23499 109.671 9.24048 109.86 9.25147C112.03 9.39436 114.042 10.367 115.53 11.9937L115.627 12.0981L115.778 12.2739L116.022 12.0102C117.634 10.2461 119.922 9.22949 122.291 9.22949H122.41C127.685 9.22949 131.369 12.7465 131.369 17.7803V29.6173C131.369 29.826 131.201 30.0019 130.99 30.0019H126.835L126.841 30.0075Z" fill="#454545"/>
<path d="M160.764 29.969H156.549C156.344 29.969 156.17 29.7986 156.17 29.5843V9.98236C156.17 9.77354 156.339 9.59769 156.549 9.59769H160.417C160.623 9.59769 160.796 9.76804 160.796 9.98236V12.3124L161.434 11.5321L161.483 11.4771C162.927 9.97137 164.859 9.20752 167.216 9.20752C168.094 9.20752 168.958 9.32842 169.933 9.5867C170.046 9.61417 170.112 9.72958 170.085 9.83949L169.148 13.9171C169.127 14.0105 169.04 14.0819 168.943 14.0819C168.926 14.0819 168.911 14.0819 168.894 14.0765C168.023 13.8621 167.352 13.7851 166.406 13.7851C163.008 13.7851 161.136 16.1591 161.136 20.462V29.5843C161.136 29.7932 160.969 29.969 160.759 29.969H160.764Z" fill="#454545"/>
<path fill-rule="evenodd" clip-rule="evenodd" d="M182.418 25.6167C179.438 25.2212 177.657 23.1658 177.657 20.127V13.9886H182.157C182.364 13.9886 182.536 13.8183 182.536 13.604V9.99349C182.536 9.78467 182.369 9.60882 182.157 9.60882H177.657V3.73428C177.657 3.52546 177.489 3.34961 177.279 3.34961H173.136C172.929 3.34961 172.757 3.51996 172.757 3.73428V20.6489C172.757 25.9301 176.97 30.2109 182.169 30.2109H182.38C182.494 30.2109 182.59 30.1175 182.59 29.9966V25.8256C182.59 25.7212 182.516 25.6278 182.413 25.6167H182.418Z" fill="#454545"/>
</g>
</svg>
