<svg width="181" height="42" viewBox="0 0 181 42" fill="none" xmlns="http://www.w3.org/2000/svg">
<path fill-rule="evenodd" clip-rule="evenodd" d="M19.3287 2.07956C9.68394 2.51254 1.83049 10.1419 1.31551 19.5854C0.895692 27.3354 5.3346 34.1152 11.923 37.2666C14.3803 38.4395 17.3023 36.9653 17.7725 34.3289C18.0916 32.5532 17.1679 30.7938 15.5166 30.0045C11.7719 28.2068 9.25852 24.3209 9.5552 19.8979C9.90225 14.7239 14.1788 10.5201 19.4629 10.1638C25.7099 9.74179 30.9157 14.5814 30.9157 20.6048C30.9157 24.7429 28.4639 28.3164 24.9039 30.0155C23.2805 30.7938 22.3906 32.5421 22.7039 34.2851L22.7208 34.3727C23.1854 36.9653 26.0569 38.4395 28.4696 37.2941C34.7948 34.2961 39.161 27.9492 39.161 20.6048C39.161 10.0706 30.1936 1.58628 19.3287 2.07956Z" fill="#EE2938"/>
<path fill-rule="evenodd" clip-rule="evenodd" d="M20.2415 27.1267C16.5638 27.1267 13.5747 24.1999 13.5747 20.599C13.5747 16.998 16.5638 14.0713 20.2415 14.0713C23.9192 14.0713 26.9083 16.998 26.9083 20.599C26.9083 24.1999 23.9192 27.1267 20.2415 27.1267Z" fill="#EE2938"/>
<mask id="mask0_2316_1686" style="mask-type:luminance" maskUnits="userSpaceOnUse" x="50" y="4" width="128" height="37">
<path d="M177.808 4.11963H50.2495V40.1967H177.808V4.11963Z" fill="white"/>
</mask>
<g mask="url(#mask0_2316_1686)">
<path fill-rule="evenodd" clip-rule="evenodd" d="M84.3373 9.88135C78.6128 9.88135 73.9727 14.6327 73.9727 20.4945C73.9727 26.3563 78.6128 31.1077 84.3373 31.1077C90.0619 31.1077 94.7019 26.3563 94.7019 20.4945C94.7019 14.6327 90.0619 9.88135 84.3373 9.88135ZM84.3373 26.3397C81.1864 26.3397 78.6289 23.7211 78.6289 20.4945C78.6289 17.268 81.1864 14.6492 84.3373 14.6492C87.4881 14.6492 90.0456 17.268 90.0456 20.4945C90.0456 23.7211 87.4881 26.3397 84.3373 26.3397Z" fill="#454545"/>
<path fill-rule="evenodd" clip-rule="evenodd" d="M70.8379 10.1698H66.6889C66.4783 10.1698 66.3111 10.3411 66.3111 10.5565V11.0703V11.9046C65.572 11.0261 64.4012 10.54 63.9372 10.3742C62.8905 10.0151 61.7736 9.82174 60.6136 9.82726C54.97 9.84383 50.33 14.54 50.2491 20.3189C50.168 26.2691 54.8514 31.1199 60.646 31.1199C61.8006 31.1199 62.9174 30.9265 63.9533 30.5674C64.4281 30.3961 65.5827 29.9099 66.3165 29.0425V29.8713V30.0702C66.3165 31.8712 65.7068 33.3409 64.5468 34.3242C63.5433 35.1807 62.135 35.6502 60.5813 35.6502C58.326 35.6502 56.1624 34.7055 54.8945 33.1972C54.7542 33.0315 54.506 33.0204 54.3495 33.1752L51.5978 35.9209C51.4468 36.0701 51.4468 36.3132 51.5924 36.4678C53.9341 38.921 56.9771 40.175 60.6406 40.1972H61.8114C66.991 40.1972 71.1886 35.8989 71.1886 30.595V28.7221C71.1886 28.7221 71.1886 28.6945 71.1886 28.6779L71.2102 10.551C71.2102 10.3355 71.0429 10.1643 70.8324 10.1643L70.8379 10.1698ZM66.3111 20.5343C66.2788 23.7111 63.7537 26.2747 60.646 26.2747C57.5382 26.2747 54.9808 23.678 54.9808 20.4736C54.9808 17.2692 57.5167 14.6726 60.646 14.6726C63.7753 14.6726 66.2788 17.2361 66.3111 20.4128V20.5343Z" fill="#454545"/>
<path fill-rule="evenodd" clip-rule="evenodd" d="M149.007 23.8107C148.834 23.7057 148.613 23.7609 148.505 23.9322C147.48 25.5344 145.715 26.5952 143.709 26.5952C141.06 26.5952 138.831 24.7554 138.172 22.2527H153.657C153.847 22.2527 154.009 22.109 154.03 21.9156C154.073 21.5234 154.095 21.1256 154.095 20.7224C154.095 14.6782 149.175 9.81631 143.218 10.0981C137.898 10.3467 133.576 14.7721 133.328 20.225C133.053 26.33 137.806 31.3632 143.704 31.3632C147.421 31.3632 150.674 29.3631 152.514 26.3631C152.628 26.1753 152.574 25.9321 152.384 25.8217L149.002 23.8162L149.007 23.8107ZM143.709 14.8494C146.077 14.8494 148.112 16.319 148.985 18.4185H138.431C139.306 16.319 141.339 14.8494 143.709 14.8494Z" fill="#454545"/>
<path fill-rule="evenodd" clip-rule="evenodd" d="M167.264 31.4177C169.363 31.4288 171.322 30.8045 172.957 29.716V30.6387C172.957 30.8543 173.124 31.0255 173.334 31.0255H177.436C177.646 31.0255 177.813 30.8543 177.813 30.6387V4.50636C177.813 4.29089 177.646 4.11963 177.436 4.11963H173.329C173.119 4.11963 172.952 4.29089 172.952 4.50636V5.85442V11.7991C171.327 10.7218 169.39 10.0975 167.308 10.0975C161.508 10.0975 156.819 14.9538 156.9 20.9095C156.981 26.6885 161.611 31.3846 167.254 31.4122L167.264 31.4177ZM167.318 14.9483C170.248 14.9483 172.655 17.2189 172.962 20.1305V21.3847C172.655 24.2962 170.248 26.5669 167.318 26.5669C164.184 26.5669 161.643 23.9647 161.643 20.7549C161.643 17.5449 164.184 14.9427 167.318 14.9427V14.9483Z" fill="#454545"/>
<path d="M125.984 31.0255C125.774 31.0255 125.607 30.8541 125.607 30.6387V19.7935C125.677 18.5393 125.267 17.3239 124.447 16.3791C123.626 15.4344 122.494 14.8708 121.263 14.7935C121.172 14.788 121.075 14.7824 120.983 14.7824C118.544 14.7824 116.515 16.7383 116.37 19.2355C116.359 19.4234 116.359 19.6112 116.37 19.7991V30.6387C116.37 30.8541 116.202 31.0255 115.992 31.0255H112.064C111.854 31.0255 111.687 30.8541 111.687 30.6387V19.7935C111.757 18.5283 111.336 17.3129 110.51 16.3682C109.685 15.4233 108.546 14.8599 107.311 14.788C107.224 14.788 107.133 14.7824 107.047 14.7824C104.586 14.7824 102.552 16.7548 102.417 19.2742C102.406 19.4509 102.406 19.6277 102.417 19.7991V30.6387C102.417 30.8541 102.25 31.0255 102.04 31.0255H97.8797C97.6692 31.0255 97.502 30.8541 97.502 30.6387V10.8102C97.502 10.5947 97.6692 10.4234 97.8797 10.4234H101.543C101.754 10.4234 101.921 10.5947 101.921 10.8102V13.1306L102.379 12.6554L102.46 12.5781C104.063 10.9704 106.183 10.0809 108.433 10.0809C108.622 10.0809 108.816 10.0864 109.005 10.0974C111.174 10.2411 113.192 11.2245 114.676 12.8599L114.773 12.9648L114.924 13.1416L115.167 12.8709C116.78 11.0919 119.067 10.0698 121.441 10.0698H121.56C126.837 10.0698 130.522 13.6168 130.522 18.6941V30.6276C130.522 30.8432 130.355 31.0144 130.144 31.0144H125.984V31.0255Z" fill="#454545"/>
</g>
</svg>
