<svg width="172" height="41" viewBox="0 0 172 41" fill="none" xmlns="http://www.w3.org/2000/svg">
<g clip-path="url(#clip0_2310_1612)">
<path fill-rule="evenodd" clip-rule="evenodd" d="M18.8892 1.30063C9.29798 1.73122 1.48813 9.31822 0.976007 18.7093C0.558517 26.4162 4.97278 33.1584 11.5246 36.2924C13.9683 37.4588 16.874 35.9926 17.3416 33.371C17.659 31.605 16.7404 29.8555 15.0983 29.0705C11.3743 27.2828 8.87492 23.4185 9.16995 19.0199C9.51507 13.8748 13.7679 9.69429 19.0227 9.34001C25.235 8.92033 30.4119 13.7331 30.4119 19.7231C30.4119 23.8382 27.9737 27.3919 24.4334 29.0814C22.8191 29.8555 21.9341 31.5941 22.2457 33.3273L22.2625 33.4146C22.7245 35.9926 25.58 37.4588 27.9793 36.3197C34.2694 33.3382 38.6114 27.0267 38.6114 19.7231C38.6114 9.24736 29.6938 0.810094 18.8892 1.30063Z" fill="#00AED6"/>
<path fill-rule="evenodd" clip-rule="evenodd" d="M19.7958 26.2095C16.1385 26.2095 13.166 23.299 13.166 19.7181C13.166 16.1371 16.1385 13.2266 19.7958 13.2266C23.453 13.2266 26.4256 16.1371 26.4256 19.7181C26.4256 23.299 23.453 26.2095 19.7958 26.2095Z" fill="#00AED6"/>
<mask id="mask0_2310_1612" style="mask-type:luminance" maskUnits="userSpaceOnUse" x="49" y="8" width="121" height="32">
<path d="M169.24 8.96777H49.2373V39.2388H169.24V8.96777Z" fill="white"/>
</mask>
<g mask="url(#mask0_2310_1612)">
<path fill-rule="evenodd" clip-rule="evenodd" d="M84.1849 9.02246C78.3159 9.02246 73.5586 13.7584 73.5586 19.601C73.5586 25.4438 78.3159 30.1797 84.1849 30.1797C90.054 30.1797 94.8111 25.4438 94.8111 19.601C94.8111 13.7584 90.054 9.02246 84.1849 9.02246ZM84.1849 25.4273C80.9545 25.4273 78.3324 22.817 78.3324 19.601C78.3324 16.3851 80.9545 13.7748 84.1849 13.7748C87.4153 13.7748 90.0373 16.3851 90.0373 19.601C90.0373 22.817 87.4153 25.4273 84.1849 25.4273Z" fill="#454545"/>
<path fill-rule="evenodd" clip-rule="evenodd" d="M70.3451 9.30919H66.0913C65.8755 9.30919 65.7041 9.4799 65.7041 9.69468V10.2068V11.0383C64.9462 10.1628 63.7459 9.67816 63.2701 9.51295C62.2025 9.155 61.0575 8.96777 59.8627 8.96777C54.0766 8.98429 49.3194 13.6651 49.2364 19.4252C49.1535 25.356 53.9548 30.1911 59.8959 30.1911C61.0796 30.1911 62.2247 29.9984 63.2868 29.6404C63.7735 29.4697 64.9573 28.9851 65.7096 28.1205V28.9465V29.1448C65.7096 30.94 65.0846 32.4048 63.8953 33.385C62.8664 34.2386 61.4226 34.7067 59.8295 34.7067C57.5173 34.7067 55.2991 33.765 53.9992 32.2617C53.8553 32.0964 53.6008 32.0854 53.4405 32.2396L50.6193 34.9765C50.4644 35.1252 50.4644 35.3675 50.6138 35.5217C53.0145 37.9667 56.1344 39.2168 59.8903 39.2388H61.0907C66.401 39.2388 70.7047 34.9545 70.7047 29.6679V27.8012C70.7047 27.8012 70.7047 27.7736 70.7047 27.7571L70.7267 9.68917C70.7267 9.4744 70.5553 9.3037 70.3395 9.3037L70.3451 9.30919ZM65.7041 19.64C65.6709 22.8064 63.082 25.3616 59.8959 25.3616C56.7097 25.3616 54.0877 22.7734 54.0877 19.5794C54.0877 16.3854 56.6875 13.7972 59.8959 13.7972C63.1042 13.7972 65.6709 16.3524 65.7041 19.5189V19.64Z" fill="#454545"/>
<path d="M122.187 24.4643C122.187 20.7527 124.621 18.7813 131.055 17.9112C134.822 17.3825 135.851 16.8483 135.851 15.8681C135.851 14.5411 134.445 13.748 132.272 13.748C129.816 13.748 127.94 15.0091 127.337 17.0191C127.282 17.2008 127.094 17.3164 126.906 17.2724L122.293 16.3196C122.082 16.2757 121.955 16.0718 122.005 15.8626C122.978 11.9032 127.028 9.23242 132.122 9.23242C138.019 9.23242 141.675 12.2226 141.675 17.1126V29.7619C141.675 29.9656 141.509 30.1308 141.305 30.1308H136.99C136.786 30.1308 136.619 29.9656 136.619 29.7619V27.6803H136.543C135.325 29.3874 132.736 30.4447 129.732 30.4447C125.241 30.4447 122.198 28.0217 122.198 24.4588L122.187 24.4643ZM136.481 22.3992V19.9156H136.404C135.889 20.6646 134.783 21.0996 131.929 21.6117C128.482 22.2451 127.26 22.9114 127.26 24.1339C127.26 25.3564 128.289 25.9456 130.508 25.9456C133.915 25.9456 136.486 24.4092 136.486 22.3992H136.481Z" fill="#454545"/>
<path fill-rule="evenodd" clip-rule="evenodd" d="M108.497 9.22036C106.346 9.20935 104.338 9.83162 102.662 10.9165V9.99131C102.662 9.77655 102.49 9.60584 102.274 9.60584H98.0703C97.8545 9.60584 97.6831 9.77655 97.6831 9.99131V38.412C97.6831 38.6267 97.8545 38.7975 98.0703 38.7975H102.28C102.496 38.7975 102.667 38.6267 102.667 38.412V37.0684V28.7751C104.332 29.849 106.318 30.4712 108.453 30.4712C114.4 30.4712 119.207 25.6306 119.124 19.6943C119.041 13.9342 114.295 9.2534 108.508 9.22587L108.497 9.22036ZM108.442 25.6362C105.438 25.6362 102.971 23.3728 102.656 20.4708V19.2207C102.971 16.3187 105.438 14.0554 108.442 14.0554C111.656 14.0554 114.261 16.649 114.261 19.8486C114.261 23.048 111.656 25.6417 108.442 25.6417V25.6362Z" fill="#454545"/>
<path d="M149.415 38.2422L153.95 29.222L144.585 10.1519C144.457 9.89858 144.646 9.60121 144.934 9.60121H150.1C150.249 9.60121 150.387 9.68932 150.449 9.82148L156.921 23.6216L163.293 9.82148C163.354 9.68381 163.492 9.5957 163.641 9.5957H168.847C169.134 9.5957 169.317 9.89307 169.196 10.1464L155.272 38.5781C155.206 38.7102 155.073 38.7929 154.923 38.7929H149.757C149.47 38.7929 149.281 38.49 149.415 38.2367V38.2422Z" fill="#454545"/>
</g>
</g>
<defs>
<clipPath id="clip0_2310_1612">
<rect width="170.415" height="41.002" fill="white" transform="translate(0.94873)"/>
</clipPath>
</defs>
</svg>
