<svg width="259" height="42" viewBox="0 0 259 42" fill="none" xmlns="http://www.w3.org/2000/svg">
<path fill-rule="evenodd" clip-rule="evenodd" d="M19.2217 1.55698C9.6305 1.98757 1.82064 9.57456 1.30853 18.9656C0.891034 26.6726 5.3053 33.4148 11.8571 36.5487C14.3008 37.7151 17.2066 36.249 17.6741 33.6273C17.9915 31.8614 17.0729 30.1118 15.4308 29.3269C11.7068 27.5392 9.20744 23.6749 9.50247 19.2764C9.84759 14.1311 14.1004 9.95064 19.3552 9.59636C25.5675 9.17668 30.7444 13.9894 30.7444 19.9794C30.7444 24.0945 28.3062 27.6482 24.7659 29.3379C23.1516 30.1118 22.2666 31.8504 22.5782 33.5838L22.595 33.6709C23.057 36.249 25.9126 37.7151 28.3118 36.576C34.6019 33.5947 38.9439 27.283 38.9439 19.9794C38.9439 9.50371 30.0263 1.06644 19.2217 1.55698Z" fill="#00AED6"/>
<path fill-rule="evenodd" clip-rule="evenodd" d="M20.1293 26.4658C16.472 26.4658 13.4995 23.5553 13.4995 19.9744C13.4995 16.3934 16.472 13.4829 20.1293 13.4829C23.7865 13.4829 26.759 16.3934 26.759 19.9744C26.759 23.5553 23.7865 26.4658 20.1293 26.4658Z" fill="#00AED6"/>
<mask id="mask0_2310_1595" style="mask-type:luminance" maskUnits="userSpaceOnUse" x="49" y="3" width="208" height="37">
<path d="M256.262 3.45752H49.9702V39.3343H256.262V3.45752Z" fill="white"/>
</mask>
<g mask="url(#mask0_2310_1595)">
<path fill-rule="evenodd" clip-rule="evenodd" d="M85.1846 9.21533C79.2709 9.21533 74.4775 13.9352 74.4775 19.7583C74.4775 25.5813 79.2709 30.3012 85.1846 30.3012C91.0981 30.3012 95.8915 25.5813 95.8915 19.7583C95.8915 13.9352 91.0981 9.21533 85.1846 9.21533ZM85.1846 25.5648C81.9295 25.5648 79.2876 22.9635 79.2876 19.7583C79.2876 16.5531 81.9295 13.9518 85.1846 13.9518C88.4395 13.9518 91.0814 16.5531 91.0814 19.7583C91.0814 22.9635 88.4395 25.5648 85.1846 25.5648Z" fill="#454545"/>
<path fill-rule="evenodd" clip-rule="evenodd" d="M71.2388 9.50006H66.9527C66.7353 9.50006 66.5626 9.67019 66.5626 9.88424V10.3946V11.2234C65.7989 10.3507 64.5895 9.86777 64.1101 9.70312C63.0288 9.34639 61.8751 9.1543 60.6767 9.15978C54.8468 9.17625 50.0534 13.8412 49.9698 19.582C49.8861 25.4928 54.7241 30.3116 60.7102 30.3116C61.9029 30.3116 63.0568 30.1194 64.1268 29.7627C64.6173 29.5925 65.81 29.1096 66.5681 28.2479V29.0711V29.2687C66.5681 31.058 65.9383 32.5179 64.7399 33.4948C63.7032 34.3454 62.2485 34.8119 60.6433 34.8119C58.3136 34.8119 56.0785 33.8734 54.7687 32.3751C54.6238 32.2105 54.3674 32.1995 54.2057 32.3532L51.3632 35.0809C51.2072 35.229 51.2072 35.4705 51.3576 35.6242C53.7766 38.061 56.9202 39.3068 60.7047 39.3287H61.9141C67.2648 39.3287 71.6011 35.0589 71.6011 29.7901V27.9296C71.6011 27.9296 71.6011 27.9022 71.6011 27.8857L71.6234 9.87875C71.6234 9.66471 71.4506 9.49458 71.2332 9.49458L71.2388 9.50006ZM66.5626 19.796C66.5291 22.9517 63.9206 25.4983 60.7102 25.4983C57.4998 25.4983 54.8579 22.9188 54.8579 19.7356C54.8579 16.5525 57.4775 13.9729 60.7102 13.9729C63.9429 13.9729 66.5291 16.5195 66.5626 19.6753V19.796Z" fill="#454545"/>
<path d="M123.475 24.6048C123.475 20.9058 125.927 18.941 132.409 18.0738C136.206 17.5469 137.242 17.0145 137.242 16.0377C137.242 14.715 135.826 13.9247 133.635 13.9247C131.161 13.9247 129.271 15.1815 128.664 17.1847C128.609 17.3659 128.419 17.4811 128.229 17.4371L123.581 16.4877C123.369 16.4438 123.241 16.2408 123.291 16.0322C124.272 12.0861 128.352 9.42432 133.485 9.42432C139.427 9.42432 143.111 12.4044 143.111 17.278V29.8846C143.111 30.0876 142.944 30.2523 142.738 30.2523H138.39C138.184 30.2523 138.016 30.0876 138.016 29.8846V27.81H137.939C136.713 29.5113 134.104 30.5651 131.078 30.5651C126.552 30.5651 123.486 28.1503 123.486 24.5994L123.475 24.6048ZM137.878 22.5467V20.0715H137.799C137.281 20.818 136.166 21.2515 133.291 21.7619C129.818 22.3931 128.586 23.0571 128.586 24.2755C128.586 25.4939 129.622 26.0812 131.858 26.0812C135.291 26.0812 137.883 24.5499 137.883 22.5467H137.878Z" fill="#454545"/>
<path fill-rule="evenodd" clip-rule="evenodd" d="M109.68 9.41274C107.512 9.40176 105.489 10.0219 103.8 11.1031V10.1866C103.8 9.97255 103.627 9.8024 103.41 9.8024H99.1739C98.9565 9.8024 98.7837 9.97255 98.7837 10.1866V38.5061C98.7837 38.72 98.9565 38.8902 99.1739 38.8902H103.415C103.633 38.8902 103.806 38.72 103.806 38.5061V37.1668V28.9016C105.483 29.9718 107.484 30.5919 109.636 30.5919C115.627 30.5919 120.471 25.7678 120.387 19.8514C120.303 14.1106 115.521 9.44567 109.691 9.41823L109.68 9.41274ZM109.624 25.7733C106.598 25.7733 104.112 23.5175 103.794 20.6252V19.3794C104.112 16.4871 106.598 14.2315 109.624 14.2315C112.863 14.2315 115.488 16.8164 115.488 20.0051C115.488 23.1937 112.863 25.7788 109.624 25.7788V25.7733Z" fill="#454545"/>
<path d="M150.91 38.3352L155.48 29.3454L146.043 10.3341C145.915 10.0816 146.105 9.78527 146.396 9.78527H151.6C151.751 9.78527 151.891 9.87308 151.951 10.0048L158.473 23.7584L164.894 10.0048C164.955 9.86759 165.095 9.77979 165.245 9.77979H170.489C170.78 9.77979 170.963 10.0761 170.84 10.3286L156.813 38.6645C156.745 38.7962 156.611 38.8785 156.462 38.8785H151.256C150.965 38.8785 150.776 38.5767 150.91 38.3242V38.3352Z" fill="#454545"/>
<path d="M181.932 24.5218C181.932 20.8228 184.385 18.858 190.867 17.9908C194.662 17.4639 195.699 16.9315 195.699 15.9547C195.699 14.632 194.283 13.8417 192.093 13.8417C189.617 13.8417 187.729 15.0985 187.12 17.1017C187.065 17.2828 186.875 17.3981 186.686 17.3541L182.037 16.4047C181.826 16.3609 181.698 16.1578 181.748 15.9492C182.729 12.0031 186.809 9.34131 191.942 9.34131C197.883 9.34131 201.568 12.3214 201.568 17.195V29.8016C201.568 30.0047 201.4 30.1693 201.194 30.1693H196.847C196.64 30.1693 196.474 30.0047 196.474 29.8016V27.727H196.396C195.169 29.4283 192.561 30.4821 189.534 30.4821C185.009 30.4821 181.942 28.0673 181.942 24.5163L181.932 24.5218ZM196.334 22.4637V19.9885H196.256C195.737 20.7349 194.624 21.1685 191.747 21.6789C188.275 22.3101 187.043 22.9741 187.043 24.1925C187.043 25.4109 188.08 25.9981 190.314 25.9981C193.748 25.9981 196.339 24.4669 196.339 22.4637H196.334Z" fill="#454545"/>
<path fill-rule="evenodd" clip-rule="evenodd" d="M233.721 23.0065C233.543 22.9022 233.315 22.9571 233.204 23.1272C232.144 24.7189 230.322 25.7725 228.249 25.7725C225.512 25.7725 223.21 23.945 222.53 21.4588H238.526C238.721 21.4588 238.889 21.3161 238.911 21.124C238.956 20.7344 238.977 20.3392 238.977 19.9386C238.977 13.9343 233.894 9.10473 227.742 9.38463C222.246 9.6316 217.782 14.0277 217.524 19.4446C217.241 25.5091 222.151 30.5089 228.243 30.5089C232.084 30.5089 235.445 28.5222 237.345 25.542C237.462 25.3554 237.406 25.1139 237.21 25.0042L233.716 23.0119L233.721 23.0065ZM228.249 14.1045C230.695 14.1045 232.796 15.5644 233.7 17.6499H222.798C223.7 15.5644 225.802 14.1045 228.249 14.1045Z" fill="#454545"/>
<path d="M178.448 3.45801H174.174C173.957 3.45801 173.783 3.63001 173.783 3.84218V29.7906C173.783 30.0028 173.957 30.1749 174.174 30.1749H178.448C178.663 30.1749 178.839 30.0028 178.839 29.7906V3.84218C178.839 3.63001 178.663 3.45801 178.448 3.45801Z" fill="#454545"/>
<path fill-rule="evenodd" clip-rule="evenodd" d="M214.437 25.7725C211.354 25.3719 209.516 23.3193 209.516 20.2733V14.1264H214.163C214.381 14.1264 214.554 13.9564 214.554 13.7423V10.1255C214.554 9.91148 214.381 9.74135 214.163 9.74135H209.516V3.85245C209.516 3.63841 209.343 3.46826 209.125 3.46826H204.844C204.628 3.46826 204.455 3.63841 204.455 3.85245V20.7948C204.455 26.0854 208.807 30.3717 214.18 30.3717H214.398C214.514 30.3717 214.615 30.2784 214.615 30.1577V25.9756C214.615 25.8713 214.537 25.778 214.431 25.767L214.437 25.7725Z" fill="#454545"/>
<path d="M246.624 30.1305H242.271C242.054 30.1305 241.882 29.9604 241.882 29.7462V10.1093C241.882 9.89525 242.054 9.72512 242.271 9.72512H246.268C246.486 9.72512 246.659 9.89525 246.659 10.1093V12.4418L247.316 11.6625L247.366 11.6076C248.86 10.0983 250.85 9.33545 253.291 9.33545C254.199 9.33545 255.091 9.4562 256.094 9.71963C256.211 9.74707 256.277 9.86233 256.256 9.9721L255.286 14.0553C255.264 14.1487 255.174 14.2199 255.074 14.2199C255.058 14.2199 255.041 14.2199 255.024 14.2146C254.126 14.0005 253.43 13.9236 252.454 13.9236C248.943 13.9236 247.01 16.3 247.01 20.6138V29.7462C247.01 29.9604 246.837 30.1305 246.619 30.1305H246.624Z" fill="#454545"/>
</g>
</svg>
