<svg width="164" height="40" viewBox="0 0 164 40" fill="none" xmlns="http://www.w3.org/2000/svg">
<g clip-path="url(#clip0_2301_1521)">
<mask id="mask0_2301_1521" style="mask-type:luminance" maskUnits="userSpaceOnUse" x="47" y="2" width="114" height="36">
<path d="M160.507 2.83936H47.6011V37.5012H160.507V2.83936Z" fill="white"/>
</mask>
<g mask="url(#mask0_2301_1521)">
<path fill-rule="evenodd" clip-rule="evenodd" d="M155.537 21.5846C155.367 21.4894 155.15 21.537 155.045 21.7009C154.045 23.2291 152.322 24.2391 150.36 24.2391C147.774 24.2391 145.595 22.4835 144.95 20.0988H160.074C160.258 20.0988 160.416 19.9612 160.439 19.7762C160.481 19.4007 160.502 19.02 160.502 18.6392C160.502 12.8755 155.695 8.23809 149.873 8.50247C144.675 8.74042 140.455 12.9602 140.217 18.1581C139.947 23.98 144.591 28.7866 150.355 28.7866C153.982 28.7866 157.164 26.8831 158.958 24.017C159.068 23.8373 159.01 23.6046 158.831 23.4988L155.525 21.5846H155.537ZM150.365 13.0342C152.676 13.0342 154.664 14.4354 155.516 16.4343H145.21C146.065 14.4354 148.048 13.0342 150.36 13.0342H150.365Z" fill="#454545"/>
<path fill-rule="evenodd" clip-rule="evenodd" d="M80.936 8.55029C75.3415 8.55029 70.7993 13.0873 70.7993 18.687C70.7993 24.2869 75.3362 28.8239 80.936 28.8239C86.5359 28.8239 91.0729 24.2869 91.0729 18.687C91.0729 13.0873 86.5359 8.55029 80.936 8.55029ZM80.936 24.2657C77.8533 24.2657 75.3521 21.7646 75.3521 18.6818C75.3521 15.5991 77.8533 13.0978 80.936 13.0978C84.0188 13.0978 86.5201 15.5991 86.5201 18.6818C86.5201 21.7646 84.0188 24.2657 80.936 24.2657Z" fill="#454545"/>
<path fill-rule="evenodd" clip-rule="evenodd" d="M67.7372 8.8254H63.6815C63.4804 8.8254 63.3113 8.98932 63.3113 9.19555V9.68731V10.4805C62.5869 9.64501 61.4394 9.17969 60.9899 9.02105C59.9693 8.67734 58.8748 8.49756 57.7378 8.49756C52.2173 8.51342 47.6805 12.9975 47.6011 18.518C47.5218 24.2025 52.1011 28.8294 57.7697 28.8294C58.9012 28.8294 59.9905 28.6443 61.0058 28.3005C61.4658 28.1366 62.5974 27.6713 63.3165 26.8463V27.6396V27.8299C63.3165 29.5485 62.719 30.955 61.5874 31.8963C60.6039 32.7106 59.229 33.1601 57.7115 33.1601C55.5065 33.1601 53.3912 32.2558 52.1486 30.8176C52.0112 30.6589 51.768 30.6484 51.6146 30.7964L48.9231 33.4192C48.775 33.562 48.775 33.7946 48.9178 33.9426C51.2074 36.2851 54.1845 37.4802 57.7697 37.5067H58.9118C63.9776 37.5067 68.0809 33.4033 68.0809 28.3375V26.5502C68.0809 26.5502 68.0809 26.5239 68.0809 26.5079L68.1021 9.19555C68.1021 8.99461 67.9382 8.8254 67.732 8.8254H67.7372ZM63.3113 18.7242C63.2795 21.7595 60.8101 24.2077 57.7697 24.2077C54.7291 24.2077 52.228 21.7278 52.228 18.666C52.228 15.6044 54.7079 13.1245 57.7697 13.1245C60.8313 13.1245 63.2795 15.5727 63.3113 18.608V18.7242Z" fill="#454545"/>
<path d="M114.074 8.85693H110.04C109.835 8.85693 109.669 9.02265 109.669 9.22708V28.1364C109.669 28.3409 109.835 28.5066 110.04 28.5066H114.074C114.279 28.5066 114.444 28.3409 114.444 28.1364V9.22708C114.444 9.02265 114.279 8.85693 114.074 8.85693Z" fill="#454545"/>
<path d="M98.1998 28.4699H94.0806C93.8797 28.4699 93.7104 28.306 93.7104 28.0997V9.24852C93.7104 9.04758 93.8743 8.87837 94.0806 8.87837H97.8614C98.0624 8.87837 98.2316 9.04228 98.2316 9.24852V11.4906L98.8555 10.7397L98.9032 10.6868C100.315 9.23793 102.197 8.50293 104.503 8.50293C105.36 8.50293 106.2 8.61926 107.158 8.86778C107.269 8.89422 107.332 9.00527 107.306 9.11102L106.391 13.0346C106.37 13.1245 106.285 13.1933 106.19 13.1933C106.174 13.1933 106.158 13.1933 106.142 13.188C105.291 12.9817 104.635 12.9077 103.715 12.9077C100.394 12.9077 98.57 15.1867 98.57 19.3272V28.0997C98.57 28.3006 98.406 28.4699 98.1998 28.4699Z" fill="#454545"/>
<path fill-rule="evenodd" clip-rule="evenodd" d="M127.268 28.8767C129.319 28.8872 131.228 28.2898 132.831 27.2533V28.1311C132.831 28.332 132.995 28.5012 133.201 28.5012H137.203C137.405 28.5012 137.574 28.3373 137.574 28.1311V3.20951C137.574 3.00857 137.41 2.83936 137.203 2.83936H133.195C132.995 2.83936 132.825 3.00328 132.825 3.20951V4.49445V10.163C131.239 9.13718 129.346 8.53966 127.315 8.53966C121.652 8.53966 117.068 13.1718 117.147 18.8562C117.226 24.3662 121.747 28.8502 127.263 28.8767H127.268ZM127.321 13.1665C130.182 13.1665 132.534 15.3293 132.831 18.1106V19.3057C132.534 22.0871 130.182 24.2498 127.321 24.2498C124.259 24.2498 121.779 21.7698 121.779 18.7082C121.779 15.6465 124.259 13.1665 127.321 13.1665Z" fill="#454545"/>
</g>
<mask id="mask1_2301_1521" style="mask-type:luminance" maskUnits="userSpaceOnUse" x="0" y="0" width="152" height="38">
<path d="M151.672 0.982422H0.55957V37.5011H151.672V0.982422Z" fill="white"/>
</mask>
<g mask="url(#mask1_2301_1521)">
<path fill-rule="evenodd" clip-rule="evenodd" d="M17.893 1.00307C8.62657 1.41907 1.08119 8.74915 0.586411 17.8222C0.183059 25.2682 4.44784 31.782 10.7778 34.8099C13.1387 35.9367 15.9461 34.5203 16.3978 31.9874C16.7043 30.2813 15.817 28.5909 14.2305 27.8326C10.6326 26.1054 8.21784 22.372 8.50287 18.1224C8.83632 13.1514 12.9451 9.11249 18.022 8.7702C24.0239 8.36473 29.0255 13.0145 29.0255 18.8017C29.0255 22.7774 26.6698 26.2107 23.2495 27.8432C21.6898 28.5909 20.8346 30.2706 21.1358 31.9453L21.152 32.0295C21.5983 34.5203 24.3573 35.9367 26.6753 34.8362C32.7524 31.9558 36.9473 25.8579 36.9473 18.8017C36.9473 8.68069 28.3316 0.529142 17.893 1.00307Z" fill="#00AA13"/>
<path fill-rule="evenodd" clip-rule="evenodd" d="M18.77 25.0681C15.2366 25.0681 12.3647 22.2562 12.3647 18.7966C12.3647 15.3368 15.2366 12.5249 18.77 12.5249C22.3033 12.5249 25.1753 15.3368 25.1753 18.7966C25.1753 22.2562 22.3033 25.0681 18.77 25.0681Z" fill="#00AA13"/>
</g>
</g>
<defs>
<clipPath id="clip0_2301_1521">
<rect width="163.406" height="39.6135" fill="white" transform="translate(0.55957 0.36377)"/>
</clipPath>
</defs>
</svg>
