<svg width="173" height="37" viewBox="0 0 173 37" fill="none" xmlns="http://www.w3.org/2000/svg">
<path fill-rule="evenodd" clip-rule="evenodd" d="M18.4905 1.1769C9.22337 1.5929 1.67742 8.92288 1.1826 17.9958C0.77922 25.4417 5.04432 31.9555 11.3747 34.9833C13.7359 36.1101 16.5434 34.6937 16.9952 32.1608C17.3018 30.4548 16.4143 28.7644 14.8277 28.0061C11.2295 26.2789 8.8146 22.5455 9.09967 18.296C9.43313 13.3251 13.5422 9.28622 18.6195 8.94394C24.6219 8.53847 29.6238 13.1882 29.6238 18.9753C29.6238 22.9509 27.268 26.3843 23.8474 28.0167C22.2876 28.7644 21.4325 30.4441 21.7336 32.1188L21.7498 32.2029C22.1962 34.6937 24.9553 36.1101 27.2734 35.0096C33.351 32.1293 37.5462 26.0315 37.5462 18.9753C37.5462 8.85443 28.93 0.702976 18.4905 1.1769Z" fill="#00AA13"/>
<path fill-rule="evenodd" clip-rule="evenodd" d="M19.3672 25.2418C15.8335 25.2418 12.9614 22.4299 12.9614 18.9703C12.9614 15.5106 15.8335 12.6987 19.3672 12.6987C22.9008 12.6987 25.7729 15.5106 25.7729 18.9703C25.7729 22.4299 22.9008 25.2418 19.3672 25.2418Z" fill="#00AA13"/>
<mask id="mask0_2301_1550" style="mask-type:luminance" maskUnits="userSpaceOnUse" x="45" y="2" width="125" height="33">
<path d="M169.875 2H45V34.375H169.875V2Z" fill="white"/>
</mask>
<g mask="url(#mask0_2301_1550)">
<path fill-rule="evenodd" clip-rule="evenodd" d="M76.5451 7.38232C71.2502 7.38232 66.9565 11.612 66.9565 16.8279C66.9565 22.0438 71.2502 26.2735 76.5451 26.2735C81.8399 26.2735 86.1336 22.0438 86.1336 16.8279C86.1336 11.612 81.8399 7.38232 76.5451 7.38232ZM76.5451 22.034C73.6261 22.034 71.2601 19.7032 71.2601 16.8279C71.2601 13.9525 73.6261 11.6218 76.5451 11.6218C79.4639 11.6218 81.83 13.9525 81.83 16.8279C81.83 19.7032 79.4639 22.034 76.5451 22.034Z" fill="#454545"/>
<path fill-rule="evenodd" clip-rule="evenodd" d="M64.0524 7.64316H60.2121C60.0178 7.64316 59.8635 7.79528 59.8635 7.98664V8.44787V9.1888C59.181 8.40862 58.0951 7.97682 57.6668 7.82962C56.7004 7.51068 55.6644 7.33894 54.5885 7.34385C49.3683 7.34876 45.0747 11.5293 45 16.6766C44.9253 21.9759 49.2588 26.289 54.6233 26.289C55.6942 26.289 56.7254 26.1173 57.6867 25.7983C58.125 25.6462 59.1959 25.2144 59.8734 24.4391V25.1752V25.3517C59.8734 26.9562 59.3056 28.2664 58.2396 29.1398C57.3131 29.9004 56.0081 30.3175 54.5735 30.3175C52.4865 30.3175 50.4841 29.4735 49.3085 28.1339C49.179 27.9867 48.945 27.9769 48.8054 28.1143L46.2602 30.5578C46.1207 30.6904 46.1207 30.9112 46.2552 31.0436C48.4219 33.2272 51.2362 34.341 54.6333 34.3655H55.7143C60.506 34.3655 64.3912 30.5382 64.3912 25.8179V24.1496C64.3912 24.1496 64.3912 24.1251 64.3912 24.1104L64.4111 7.97192C64.4111 7.78056 64.2567 7.62844 64.0625 7.62844L64.0524 7.64316ZM59.8635 16.8728C59.8335 19.6992 57.4974 21.9858 54.6184 21.9858C51.7393 21.9858 49.3733 19.6746 49.3733 16.8188C49.3733 13.9631 51.7194 11.652 54.6184 11.652C57.5173 11.652 59.8335 13.9386 59.8635 16.7649V16.8728Z" fill="#454545"/>
<path fill-rule="evenodd" clip-rule="evenodd" d="M122.535 19.5075C122.376 19.4142 122.171 19.4633 122.072 19.6154C121.126 21.0384 119.497 21.9805 117.638 21.9805C115.188 21.9805 113.131 20.3416 112.523 18.1188H126.839C127.013 18.1188 127.162 17.9913 127.182 17.8195C127.223 17.4711 127.242 17.1179 127.242 16.7597C127.242 11.3867 122.695 7.05891 117.185 7.30916C112.264 7.52997 108.274 11.4652 108.045 16.3131C107.791 21.7401 112.184 26.22 117.638 26.22C121.07 26.22 124.085 24.4436 125.777 21.7744C125.883 21.6076 125.833 21.3916 125.658 21.2935L122.531 19.5123L122.535 19.5075ZM117.638 11.5388C119.825 11.5388 121.703 12.844 122.516 14.7086H112.762C113.569 12.844 115.452 11.5388 117.638 11.5388Z" fill="#454545"/>
<path fill-rule="evenodd" clip-rule="evenodd" d="M138.897 7.36328C143.914 7.36328 147.988 11.3819 147.988 16.3182V16.377V25.6018C147.988 25.7834 147.838 25.9305 147.655 25.9305H143.874C143.69 25.9305 143.539 25.7834 143.539 25.6018V15.9208H143.535C143.41 13.5115 141.363 11.5782 138.897 11.5782C136.432 11.5782 134.384 13.5115 134.261 15.9208H134.255V25.6018C134.255 25.7834 134.106 25.9305 133.922 25.9305H130.141C129.957 25.9305 129.807 25.7834 129.807 25.6018V16.3329C129.807 11.3771 133.887 7.36328 138.897 7.36328Z" fill="#454545"/>
<path fill-rule="evenodd" clip-rule="evenodd" d="M160.127 26.2739C162.07 26.2837 163.878 25.7243 165.392 24.7626V25.5821C165.392 25.7734 165.547 25.9255 165.741 25.9255H169.531C169.725 25.9255 169.88 25.7734 169.88 25.5821V2.34348C169.88 2.15212 169.725 2 169.531 2H165.736C165.542 2 165.387 2.15212 165.387 2.34348V3.54074V8.83025C163.883 7.87343 162.095 7.31896 160.172 7.31896C154.812 7.31896 150.474 11.6369 150.549 16.9363C150.623 22.0737 154.902 26.2543 160.123 26.2788L160.127 26.2739ZM160.177 11.6272C162.881 11.6272 165.108 13.6438 165.392 16.2346V17.3484C165.108 19.9392 162.881 21.9559 160.177 21.9559C157.278 21.9559 154.932 19.6448 154.932 16.789C154.932 13.9333 157.278 11.6222 160.177 11.6222V11.6272Z" fill="#454545"/>
<path d="M97.784 26.284C92.9674 26.284 89.4408 23.9976 88.4795 20.288C88.4346 20.1064 88.5492 19.9249 88.7335 19.8759L92.4046 18.9338C92.5838 18.8896 92.7631 18.9876 92.8229 19.1643C93.5601 21.2694 95.2388 22.3342 97.819 22.3342C100.399 22.3342 101.689 21.7453 101.689 20.7198C101.689 19.6942 100.673 19.1545 97.5051 18.6246C91.4632 17.6089 89.2167 16.0239 89.2167 12.7855C89.2167 9.54703 92.3049 7.21631 96.8974 7.21631C100.972 7.21631 104.583 9.33112 105.664 12.2948C105.729 12.4715 105.624 12.6677 105.445 12.7267L101.884 13.8945C101.719 13.9485 101.535 13.8748 101.46 13.7178C100.728 12.1329 98.9995 11.1663 96.8626 11.1663C94.895 11.1663 93.6249 11.7992 93.6249 12.7807C93.6249 13.762 94.5762 14.1545 98.2473 14.8071C103.916 15.7737 106.127 17.4224 106.127 20.6805C106.127 23.9386 102.775 26.284 97.7791 26.284H97.784Z" fill="#454545"/>
</g>
</svg>
