<svg width="196" height="42" viewBox="0 0 196 42" fill="none" xmlns="http://www.w3.org/2000/svg">
<path fill-rule="evenodd" clip-rule="evenodd" d="M21.5416 2.07956C11.8968 2.51254 4.04338 10.1419 3.52841 19.5854C3.10858 27.3354 7.54749 34.1152 14.1358 37.2666C16.5932 38.4395 19.5152 36.9653 19.9853 34.3289C20.3045 32.5532 19.3808 30.7938 17.7295 30.0045C13.9847 28.2068 11.4714 24.3209 11.7681 19.8979C12.1151 14.7239 16.3917 10.5201 21.6758 10.1638C27.9228 9.74179 33.1286 14.5814 33.1286 20.6048C33.1286 24.7429 30.6768 28.3164 27.1167 30.0155C25.4934 30.7938 24.6035 32.5421 24.9168 34.2851L24.9337 34.3727C25.3983 36.9653 28.2698 38.4395 30.6824 37.2941C37.0076 34.2961 41.3739 27.9492 41.3739 20.6048C41.3739 10.0706 32.4065 1.58628 21.5416 2.07956Z" fill="#EE2938"/>
<path fill-rule="evenodd" clip-rule="evenodd" d="M22.4534 27.1267C18.7757 27.1267 15.7866 24.1999 15.7866 20.599C15.7866 16.998 18.7757 14.0713 22.4534 14.0713C26.1311 14.0713 29.1202 16.998 29.1202 20.599C29.1202 24.1999 26.1311 27.1267 22.4534 27.1267Z" fill="#EE2938"/>
<mask id="mask0_2316_1673" style="mask-type:luminance" maskUnits="userSpaceOnUse" x="52" y="3" width="141" height="38">
<path d="M192.905 3.99023H52.4619V40.0673H192.905V3.99023Z" fill="white"/>
</mask>
<g mask="url(#mask0_2316_1673)">
<path fill-rule="evenodd" clip-rule="evenodd" d="M87.6162 9.68213C81.7125 9.68213 76.9272 14.4437 76.9272 20.3181C76.9272 26.1926 81.7125 30.9541 87.6162 30.9541C93.52 30.9541 98.3052 26.1926 98.3052 20.3181C98.3052 14.4437 93.52 9.68213 87.6162 9.68213ZM87.6162 26.1759C84.3666 26.1759 81.7292 23.5516 81.7292 20.3181C81.7292 17.0846 84.3666 14.4603 87.6162 14.4603C90.8657 14.4603 93.5032 17.0846 93.5032 20.3181C93.5032 23.5516 90.8657 26.1759 87.6162 26.1759Z" fill="#454545"/>
<path fill-rule="evenodd" clip-rule="evenodd" d="M73.6938 9.97571H69.4149C69.198 9.97571 69.0254 10.1473 69.0254 10.3633V10.8782V11.7142C68.2631 10.8339 67.0556 10.3467 66.5771 10.1806C65.4976 9.82068 64.3459 9.6269 63.1495 9.63244C57.3293 9.64352 52.544 14.3497 52.4605 20.1466C52.377 26.1097 57.2069 30.9708 63.1829 30.9708C64.3737 30.9708 65.5255 30.777 66.5938 30.4171C67.0835 30.2455 68.2743 29.7583 69.031 28.889V29.7196V29.9189C69.031 31.7238 68.4022 33.1966 67.2059 34.1822C66.171 35.0403 64.7186 35.5109 63.1161 35.5109C60.7902 35.5109 58.559 34.5642 57.2513 33.0526C57.1067 32.8865 56.8507 32.8754 56.6894 33.0305L53.8516 35.7822C53.6958 35.9316 53.6958 36.1753 53.846 36.3303C56.2609 38.7887 59.3992 40.0454 63.1774 40.0676H64.3848C69.7265 40.0676 74.0555 35.76 74.0555 30.4448V28.5679C74.0555 28.5679 74.0555 28.5402 74.0555 28.5236L74.0778 10.3577C74.0778 10.1418 73.9052 9.97019 73.6883 9.97019L73.6938 9.97571ZM69.0254 20.3626C68.9921 23.5461 66.3879 26.1152 63.1829 26.1152C59.9778 26.1152 57.3403 23.5129 57.3403 20.3016C57.3403 17.0904 59.9557 14.4881 63.1829 14.4881C66.4102 14.4881 68.9921 17.0572 69.0254 20.2407V20.3626Z" fill="#454545"/>
<path fill-rule="evenodd" clip-rule="evenodd" d="M157.748 9.91992C151.839 9.91992 147.047 14.687 147.047 20.5669C147.047 26.447 151.839 31.214 157.748 31.214C163.656 31.214 168.448 26.447 168.448 20.5669C168.448 14.687 163.656 9.91992 157.748 9.91992ZM157.748 26.4303C154.493 26.4303 151.855 23.806 151.855 20.5669C151.855 17.328 154.493 14.7036 157.748 14.7036C161.002 14.7036 163.64 17.328 163.64 20.5669C163.64 23.806 161.002 26.4303 157.748 26.4303Z" fill="#454545"/>
<path fill-rule="evenodd" clip-rule="evenodd" d="M182.22 9.89272C180.056 9.88164 178.035 10.5073 176.35 11.598V10.6734C176.35 10.4575 176.177 10.2858 175.961 10.2858H171.731C171.514 10.2858 171.342 10.4575 171.342 10.6734V39.2482C171.342 39.4642 171.514 39.6358 171.731 39.6358H175.966C176.183 39.6358 176.355 39.4642 176.355 39.2482V37.8973V29.559C178.03 30.6387 180.027 31.2643 182.175 31.2643C188.158 31.2643 192.993 26.3976 192.909 20.429C192.826 14.6377 188.052 9.93148 182.232 9.90379L182.22 9.89272ZM182.165 26.3976C179.143 26.3976 176.662 24.122 176.345 21.2042V19.9473C176.662 17.0296 179.143 14.7539 182.165 14.7539C185.398 14.7539 188.018 17.3617 188.018 20.5785C188.018 23.7953 185.398 26.4031 182.165 26.4031V26.3976Z" fill="#454545"/>
<path d="M111.665 31.2694C106.296 31.2694 102.362 28.6949 101.288 24.5146C101.238 24.3099 101.366 24.105 101.566 24.0496L105.661 22.9865C105.862 22.9368 106.062 23.0475 106.129 23.2468C106.947 25.6165 108.822 26.8179 111.699 26.8179C114.575 26.8179 116.016 26.1536 116.016 25.0019C116.016 23.8503 114.881 23.2412 111.354 22.6433C104.615 21.4972 102.106 19.7143 102.106 16.0602C102.106 12.406 105.55 9.78711 110.675 9.78711C115.221 9.78711 119.244 12.1679 120.451 15.5065C120.524 15.7058 120.407 15.9273 120.206 15.9938L116.233 17.3115C116.05 17.3724 115.844 17.2893 115.76 17.1177C114.943 15.3348 113.017 14.2441 110.636 14.2441C108.443 14.2441 107.025 14.9583 107.025 16.0658C107.025 17.1731 108.087 17.6159 112.183 18.3469C118.504 19.4376 120.969 21.2923 120.969 24.9631C120.969 28.634 117.229 31.275 111.66 31.275L111.665 31.2694Z" fill="#454545"/>
<path fill-rule="evenodd" clip-rule="evenodd" d="M144.156 20.0964C144.156 14.5321 139.603 10.0031 134.012 10.0031C132.12 10.0031 130.35 10.6896 128.831 11.808V4.3778C128.831 4.16187 128.659 3.99023 128.442 3.99023H124.252C124.035 3.99023 123.862 4.16187 123.862 4.3778V30.5553C123.862 30.76 124.029 30.9263 124.235 30.9263H128.453C128.659 30.9263 128.826 30.76 128.826 30.5553V19.6479C128.826 16.946 131.257 14.7536 134.006 14.7536C136.755 14.7536 139.042 16.9351 139.181 19.6479H139.186V30.5553C139.186 30.76 139.354 30.9263 139.56 30.9263H143.777C143.983 30.9263 144.149 30.76 144.149 30.5553V20.1629V20.0964H144.156Z" fill="#454545"/>
</g>
</svg>
