<svg width="235" height="42" viewBox="0 0 235 42" fill="none" xmlns="http://www.w3.org/2000/svg">
<path fill-rule="evenodd" clip-rule="evenodd" d="M20.5811 1.55698C10.9899 1.98757 3.18002 9.57456 2.6679 18.9656C2.25041 26.6726 6.66467 33.4148 13.2164 36.5487C15.6602 37.7151 18.5659 36.249 19.0335 33.6273C19.3509 31.8614 18.4323 30.1118 16.7902 29.3269C13.0662 27.5392 10.5668 23.6749 10.8618 19.2764C11.207 14.1311 15.4598 9.95064 20.7146 9.59636C26.9269 9.17668 32.1038 13.9894 32.1038 19.9794C32.1038 24.0945 29.6656 27.6482 26.1253 29.3379C24.511 30.1118 23.626 31.8504 23.9376 33.5838L23.9544 33.6709C24.4164 36.249 27.2719 37.7151 29.6712 36.576C35.9613 33.5947 40.3033 27.283 40.3033 19.9794C40.3033 9.50371 31.3857 1.06644 20.5811 1.55698Z" fill="#00AED6"/>
<path fill-rule="evenodd" clip-rule="evenodd" d="M21.4882 26.4658C17.8309 26.4658 14.8584 23.5553 14.8584 19.9744C14.8584 16.3934 17.8309 13.4829 21.4882 13.4829C25.1453 13.4829 28.1179 16.3934 28.1179 19.9744C28.1179 23.5553 25.1453 26.4658 21.4882 26.4658Z" fill="#00AED6"/>
<mask id="mask0_2310_1624" style="mask-type:luminance" maskUnits="userSpaceOnUse" x="51" y="4" width="181" height="36">
<path d="M231.994 4.09814H51.3291V39.9749H231.994V4.09814Z" fill="white"/>
</mask>
<g mask="url(#mask0_2310_1624)">
<path fill-rule="evenodd" clip-rule="evenodd" d="M86.0171 9.72461C80.1919 9.72461 75.4702 14.413 75.4702 20.1971C75.4702 25.9812 80.1919 30.6695 86.0171 30.6695C91.8423 30.6695 96.5641 25.9812 96.5641 20.1971C96.5641 14.413 91.8423 9.72461 86.0171 9.72461ZM86.0171 25.9648C82.8107 25.9648 80.2084 23.3807 80.2084 20.1971C80.2084 17.0134 82.8107 14.4294 86.0171 14.4294C89.2234 14.4294 91.8259 17.0134 91.8259 20.1971C91.8259 23.3807 89.2234 25.9648 86.0171 25.9648Z" fill="#454545"/>
<path fill-rule="evenodd" clip-rule="evenodd" d="M72.2803 10.0075H68.0582C67.8441 10.0075 67.674 10.1765 67.674 10.3892V10.8961V11.7193C66.9217 10.8525 65.7304 10.3728 65.2582 10.2093C64.193 9.8549 63.0566 9.6641 61.8762 9.66955C56.1333 9.68591 51.4116 14.3198 51.3292 20.0221C51.2469 25.8934 56.0125 30.6798 61.9091 30.6798C63.0841 30.6798 64.2206 30.489 65.2747 30.1348C65.7578 29.9658 66.9327 29.486 67.6795 28.6301V29.4479V29.6441C67.6795 31.4213 67.0591 32.8714 65.8786 33.8419C64.8574 34.6868 63.4244 35.1502 61.8432 35.1502C59.5483 35.1502 57.3466 34.2179 56.0564 32.7297C55.9137 32.5662 55.6612 32.5552 55.5019 32.7079L52.7018 35.4174C52.5481 35.5645 52.5481 35.8043 52.6963 35.957C55.0791 38.3774 58.1757 39.6151 61.9036 39.6368H63.0951C68.3658 39.6368 72.6373 35.3954 72.6373 30.1619V28.3139C72.6373 28.3139 72.6373 28.2866 72.6373 28.2703L72.6592 10.3837C72.6592 10.1711 72.489 10.0021 72.2749 10.0021L72.2803 10.0075ZM67.674 20.2347C67.6411 23.3693 65.0715 25.8989 61.9091 25.8989C58.7467 25.8989 56.1442 23.3366 56.1442 20.1747C56.1442 17.0128 58.7247 14.4506 61.9091 14.4506C65.0935 14.4506 67.6411 16.98 67.674 20.1148V20.2347Z" fill="#454545"/>
<path d="M112.481 25.0107C112.481 21.3364 114.897 19.3847 121.282 18.5234C125.021 18 126.042 17.4712 126.042 16.5008C126.042 15.187 124.648 14.4019 122.49 14.4019C120.052 14.4019 118.191 15.6503 117.592 17.6402C117.538 17.8201 117.351 17.9345 117.164 17.8909L112.585 16.9479C112.377 16.9042 112.25 16.7025 112.3 16.4953C113.266 12.5757 117.285 9.93164 122.342 9.93164C128.194 9.93164 131.824 12.8918 131.824 17.7328V30.2551C131.824 30.4567 131.658 30.6204 131.456 30.6204H127.173C126.97 30.6204 126.805 30.4567 126.805 30.2551V28.1943H126.728C125.52 29.8844 122.951 30.9311 119.97 30.9311C115.512 30.9311 112.492 28.5323 112.492 25.0053L112.481 25.0107ZM126.668 22.9663V20.5077H126.591C126.081 21.2491 124.982 21.6798 122.149 22.1868C118.729 22.8137 117.516 23.4733 117.516 24.6835C117.516 25.8939 118.537 26.4771 120.738 26.4771C124.121 26.4771 126.674 24.9562 126.674 22.9663H126.668Z" fill="#454545"/>
<path d="M189.784 25.0107C189.784 21.3364 192.199 19.3847 198.585 18.5234C202.324 18 203.345 17.4712 203.345 16.5008C203.345 15.187 201.95 14.4019 199.792 14.4019C197.355 14.4019 195.493 15.6503 194.895 17.6402C194.84 17.8201 194.654 17.9345 194.467 17.8909L189.888 16.9479C189.68 16.9042 189.553 16.7025 189.603 16.4953C190.569 12.5757 194.587 9.93164 199.645 9.93164C205.497 9.93164 209.127 12.8918 209.127 17.7328V30.2551C209.127 30.4567 208.961 30.6204 208.759 30.6204H204.475C204.273 30.6204 204.108 30.4567 204.108 30.2551V28.1943H204.031C202.824 29.8844 200.253 30.9311 197.273 30.9311C192.814 30.9311 189.795 28.5323 189.795 25.0053L189.784 25.0107ZM203.971 22.9663V20.5077H203.894C203.384 21.2491 202.286 21.6798 199.453 22.1868C196.032 22.8137 194.818 23.4733 194.818 24.6835C194.818 25.8939 195.839 26.4771 198.042 26.4771C201.423 26.4771 203.977 24.9562 203.977 22.9663H203.971Z" fill="#454545"/>
<path fill-rule="evenodd" clip-rule="evenodd" d="M221.986 9.94775C227.503 9.94775 231.995 14.4071 231.995 19.886V20.0277V30.2657C231.995 30.4675 231.83 30.631 231.626 30.631H227.465C227.262 30.631 227.097 30.4675 227.097 30.2657V19.5261H227.092C226.955 16.8549 224.704 14.7069 221.986 14.7069C219.268 14.7069 217.017 16.8549 216.88 19.5261H216.875V30.2657C216.875 30.4675 216.709 30.631 216.507 30.631H212.345C212.142 30.631 211.978 30.4675 211.978 30.2657V19.9023C211.978 14.4071 216.469 9.94775 221.986 9.94775Z" fill="#454545"/>
<path d="M163.476 10.3022H159.269C159.058 10.3022 158.885 10.4731 158.885 10.6838V30.2495C158.885 30.4602 159.058 30.6312 159.269 30.6312H163.476C163.687 30.6312 163.86 30.4602 163.86 30.2495V10.6838C163.86 10.4731 163.687 10.3022 163.476 10.3022Z" fill="#454545"/>
<path fill-rule="evenodd" clip-rule="evenodd" d="M155.652 10.3073H151.424C151.21 10.3073 151.039 10.4764 151.039 10.689V11.196V12.0191C150.287 11.1523 149.091 10.6726 148.619 10.5091C147.553 10.1547 146.416 9.96391 145.231 9.96935C139.477 9.98571 134.75 14.6251 134.668 20.3383C134.585 26.215 139.356 31.0069 145.258 31.0069C146.438 31.0069 147.57 30.8161 148.629 30.4618C149.112 30.2928 150.287 29.8131 151.034 28.9572V29.7749V29.9712C151.034 31.7484 150.414 33.204 149.233 34.1743C148.212 35.0193 146.779 35.4826 145.193 35.4826C142.892 35.4826 140.69 34.545 139.4 33.0622C139.258 32.8986 138.999 32.8877 138.845 33.0403L136.04 35.7498C135.887 35.897 135.887 36.1369 136.034 36.2895C138.422 38.71 141.519 39.9475 145.258 39.9748H146.45C151.726 39.9748 156.003 35.728 156.003 30.4891V28.6356C156.003 28.6356 156.003 28.6083 156.003 28.5919L156.025 10.6835C156.025 10.4709 155.855 10.3019 155.641 10.3019L155.652 10.3073ZM151.039 20.5454C151.006 23.6855 148.437 26.2204 145.263 26.2204C142.091 26.2204 139.488 23.6528 139.488 20.4854C139.488 17.3181 142.074 14.7504 145.263 14.7504C148.454 14.7504 151.006 17.2853 151.039 20.4254V20.5454Z" fill="#454545"/>
<path fill-rule="evenodd" clip-rule="evenodd" d="M109.253 26.2533C106.217 25.8553 104.405 23.8165 104.405 20.7908V14.6851H108.984C109.198 14.6851 109.368 14.5161 109.368 14.3034V10.7109C109.368 10.4983 109.198 10.3293 108.984 10.3293H104.405V4.47976C104.405 4.26714 104.234 4.09814 104.02 4.09814H99.8038C99.5897 4.09814 99.4194 4.26714 99.4194 4.47976V21.3087C99.4194 26.564 103.707 30.8217 109 30.8217H109.214C109.33 30.8217 109.428 30.7291 109.428 30.6091V26.455C109.428 26.3515 109.352 26.2587 109.247 26.2478L109.253 26.2533Z" fill="#454545"/>
<path fill-rule="evenodd" clip-rule="evenodd" d="M186.737 19.9675C186.737 14.4886 182.246 10.0293 176.728 10.0293C174.862 10.0293 173.116 10.7053 171.617 11.8065V4.4905C171.617 4.27789 171.446 4.10889 171.232 4.10889H167.099C166.883 4.10889 166.714 4.27789 166.714 4.4905V30.2656C166.714 30.4672 166.878 30.6307 167.082 30.6307H171.244C171.446 30.6307 171.612 30.4672 171.612 30.2656V19.526C171.612 16.8656 174.01 14.7067 176.723 14.7067C179.435 14.7067 181.692 16.8547 181.829 19.526H181.834V30.2656C181.834 30.4672 181.999 30.6307 182.202 30.6307H186.363C186.567 30.6307 186.732 30.4672 186.732 30.2656V20.0329V19.9675H186.737Z" fill="#454545"/>
</g>
</svg>
